M48
;DRILL file {Pcbnew (2011-11-27 BZR 3249)-stable} date 07/12/2012 16:38:34
;FORMAT={-:-/ absolute / inch / decimal}
FMAT,2
INCH,TZ
T1C0.002
T2C0.025
T3C0.032
T4C0.040
T5C0.047
T6C0.055
T7C0.120
%
G90
G05
M72
T1
X1.900Y1.700
X1.900Y5.200
X6.450Y1.700
X6.450Y1.700
X6.450Y3.650
X7.400Y3.650
X7.400Y5.200
T2
X2.300Y4.600
X2.400Y3.100
X2.400Y3.300
X2.540Y4.750
X2.600Y2.388
X2.680Y2.270
X2.700Y4.820
X2.760Y2.060
X2.830Y1.980
X2.900Y2.050
X3.600Y2.250
X3.750Y2.200
X3.850Y2.200
X3.950Y3.150
X4.200Y2.200
X4.400Y3.150
X4.550Y2.250
X4.650Y2.200
X4.650Y3.050
X4.750Y2.200
X4.750Y2.950
X4.950Y2.200
X5.450Y2.250
X5.670Y2.410
X5.900Y3.750
X6.329Y3.750
X6.500Y4.210
T3
X2.500Y2.650
X2.500Y2.950
X2.500Y3.950
X2.500Y4.350
X3.000Y2.050
X3.000Y2.750
X3.000Y2.850
X3.000Y3.000
X3.000Y3.400
X3.300Y2.750
X3.300Y2.850
X3.350Y3.000
X3.350Y3.400
X3.525Y4.400
X3.550Y3.900
X3.550Y4.100
X3.550Y4.300
X3.750Y3.900
X3.750Y4.100
X3.750Y4.300
X3.925Y4.400
X3.950Y3.250
X3.950Y3.550
X4.050Y3.250
X4.050Y3.550
X4.075Y4.400
X4.150Y3.250
X4.150Y3.550
X4.250Y3.250
X4.250Y3.550
X4.350Y3.900
X4.350Y4.100
X4.350Y4.300
X4.475Y4.400
X4.500Y3.250
X4.500Y3.550
X4.550Y3.900
X4.550Y4.100
X4.550Y4.300
X4.600Y3.250
X4.600Y3.550
X4.700Y3.250
X4.700Y3.550
X4.800Y3.250
X4.800Y3.550
X4.900Y4.200
X4.900Y4.500
X5.100Y4.200
X5.100Y4.500
X5.600Y4.100
X5.600Y4.200
X5.700Y4.200
T4
X3.000Y1.950
X3.100Y1.950
X3.100Y2.050
X3.200Y1.950
X3.200Y2.050
X3.300Y1.950
X3.400Y1.950
X3.500Y1.950
X3.600Y1.950
X3.600Y2.050
X3.700Y1.950
X3.700Y2.050
X3.800Y1.950
X3.800Y2.050
X3.900Y1.950
X3.900Y2.050
X4.000Y1.950
X4.000Y2.050
X4.100Y1.950
X4.100Y2.050
X4.200Y1.950
X4.200Y2.050
X4.300Y1.950
X4.300Y2.050
X4.400Y1.950
X4.400Y2.050
X4.500Y1.950
X4.600Y1.950
X4.700Y1.950
X4.800Y1.950
X4.900Y1.950
X4.900Y2.050
X5.000Y1.950
X5.100Y1.950
X5.200Y1.950
X5.200Y2.050
X5.300Y1.950
X5.300Y2.050
X5.400Y1.950
X5.400Y2.050
X5.500Y1.950
X5.600Y1.950
X5.700Y1.950
X5.700Y2.050
X5.800Y1.950
X5.800Y2.050
X5.900Y1.950
X5.900Y2.050
T5
X2.200Y3.125
X2.200Y3.275
X2.200Y3.525
X2.200Y3.675
X2.340Y1.870
X2.400Y5.030
X2.490Y1.870
X2.550Y5.030
X2.640Y1.870
X2.700Y5.030
X6.200Y3.164
X6.201Y2.879
X6.250Y2.138
X6.250Y2.288
X6.250Y2.438
X6.630Y5.030
X6.780Y5.030
X6.930Y5.030
X7.100Y3.925
X7.100Y4.075
T6
X5.300Y2.700
X5.300Y2.900
X5.300Y3.300
X5.300Y3.500
X5.650Y2.700
X5.650Y2.900
X5.650Y3.300
X5.650Y3.500
T7
X2.050Y1.850
X2.050Y5.050
X7.250Y5.050
T0
M30
