<?xml version="1.0" standalone="no"?>
<!DOCTYPE svg PUBLIC "-//W3C//DTD SVG 20010904//EN" 
"http://www.w3.org/TR/2001/REC-SVG-20010904/DTD/svg10.dtd"> 
<svg xmlns="http://www.w3.org/2000/svg" xmlns:xlink="http://www.w3.org/1999/xlink" 
    width="5.9cm" height="3.8cm" viewBox="0 0 2341 1501 "> 
<title>SVG Picture created as LPR430.svg </title>
<desc>Picture generated by wxSVG v0100 </desc>
<g style="fill:black; stroke:black; stroke-width:1">
</g>
<g style="fill:#00A0A0; fill-opacity:0.0; 
  stroke:#00A0A0; stroke-linecap:round; stroke-linejoin:round; stroke-opacity:1.0; stroke-opacity:1.0; stroke-width:6" 
   transform="translate(0 0) scale(1 1)">
<path d="M1153 714 L1153 763" /> 
<path d="M1153 763 L1156 769" /> 
<path d="M1156 769 L1159 771" /> 
<path d="M1159 771 L1165 774" /> 
<path d="M1165 774 L1176 774" /> 
<path d="M1176 774 L1182 771" /> 
<path d="M1182 771 L1185 769" /> 
<path d="M1185 769 L1188 763" /> 
<path d="M1188 763 L1188 714" /> 
<g style = "stroke-linecap:round;" > 
<path d="M1188 714 L1188 714" /> 
</g><path d="M1043 774 L1014 774" /> 
<path d="M1014 774 L1014 714" /> 
<g style = "stroke-linecap:round;" > 
<path d="M1014 714 L1014 714" /> 
</g><path d="M1063 774 L1063 714" /> 
<path d="M1063 714 L1086 714" /> 
<path d="M1086 714 L1092 717" /> 
<path d="M1092 717 L1095 720" /> 
<path d="M1095 720 L1098 726" /> 
<path d="M1098 726 L1098 734" /> 
<path d="M1098 734 L1095 740" /> 
<path d="M1095 740 L1092 743" /> 
<path d="M1092 743 L1086 746" /> 
<path d="M1086 746 L1063 746" /> 
<g style = "stroke-linecap:round;" > 
<path d="M1063 746 L1063 746" /> 
</g><path d="M1158 774 L1138 746" /> 
<g style = "stroke-linecap:round;" > 
<path d="M1138 746 L1138 746" /> 
</g><path d="M1123 774 L1123 714" /> 
<path d="M1123 714 L1146 714" /> 
<path d="M1146 714 L1152 717" /> 
<path d="M1152 717 L1155 720" /> 
<path d="M1155 720 L1158 726" /> 
<path d="M1158 726 L1158 734" /> 
<path d="M1158 734 L1155 740" /> 
<path d="M1155 740 L1152 743" /> 
<path d="M1152 743 L1146 746" /> 
<path d="M1146 746 L1123 746" /> 
<g style = "stroke-linecap:round;" > 
<path d="M1123 746 L1123 746" /> 
</g><path d="M1209 734 L1209 774" /> 
<g style = "stroke-linecap:round;" > 
<path d="M1209 774 L1209 774" /> 
</g><path d="M1195 711 L1180 754" /> 
<path d="M1180 754 L1218 754" /> 
<g style = "stroke-linecap:round;" > 
<path d="M1218 754 L1218 754" /> 
</g><path d="M1235 714 L1272 714" /> 
<path d="M1272 714 L1252 737" /> 
<path d="M1252 737 L1260 737" /> 
<path d="M1260 737 L1266 740" /> 
<path d="M1266 740 L1269 743" /> 
<path d="M1269 743 L1272 749" /> 
<path d="M1272 749 L1272 763" /> 
<path d="M1272 763 L1269 769" /> 
<path d="M1269 769 L1266 771" /> 
<path d="M1266 771 L1260 774" /> 
<path d="M1260 774 L1243 774" /> 
<path d="M1243 774 L1237 771" /> 
<path d="M1237 771 L1235 769" /> 
<g style = "stroke-linecap:round;" > 
<path d="M1235 769 L1235 769" /> 
</g><path d="M1309 714 L1314 714" /> 
<path d="M1314 714 L1320 717" /> 
<path d="M1320 717 L1323 720" /> 
<path d="M1323 720 L1326 726" /> 
<path d="M1326 726 L1329 737" /> 
<path d="M1329 737 L1329 751" /> 
<path d="M1329 751 L1326 763" /> 
<path d="M1326 763 L1323 769" /> 
<path d="M1323 769 L1320 771" /> 
<path d="M1320 771 L1314 774" /> 
<path d="M1314 774 L1309 774" /> 
<path d="M1309 774 L1303 771" /> 
<path d="M1303 771 L1300 769" /> 
<path d="M1300 769 L1297 763" /> 
<path d="M1297 763 L1294 751" /> 
<path d="M1294 751 L1294 737" /> 
<path d="M1294 737 L1297 726" /> 
<path d="M1297 726 L1300 720" /> 
<path d="M1300 720 L1303 717" /> 
<path d="M1303 717 L1309 714" /> 
</g>
<g style="fill:#00A0A0; fill-opacity:0.0; 
  stroke:#A00000; stroke-linecap:round; stroke-linejoin:round; stroke-opacity:1.0; stroke-opacity:1.0; stroke-width:6" 
   transform="translate(0 0) scale(1 1)">
<path d="M1020 1100 L1020 1400" /> 
<path d="M1008 1388 L1032 1412" /> 
<path d="M1032 1388 L1008 1412" /> 
</g>
<g style="fill:#00A0A0; fill-opacity:0.0; 
  stroke:#00A0A0; stroke-linecap:round; stroke-linejoin:round; stroke-opacity:1.0; stroke-opacity:1.0; stroke-width:6" 
   transform="translate(0 0) scale(1 1)">
<path d="M1007 1048 L1040 1048" /> 
<g style = "stroke-linecap:round;" > 
<path d="M1040 1048 L1040 1048" /> 
</g><path d="M1012 1048 L1009 1046" /> 
<path d="M1009 1046 L1007 1041" /> 
<path d="M1007 1041 L1007 1034" /> 
<path d="M1007 1034 L1009 1029" /> 
<path d="M1009 1029 L1014 1027" /> 
<path d="M1014 1027 L1040 1027" /> 
<g style = "stroke-linecap:round;" > 
<path d="M1040 1027 L1040 1027" /> 
</g><path d="M1038 982 L1040 986" /> 
<path d="M1040 986 L1040 996" /> 
<path d="M1040 996 L1038 1001" /> 
<path d="M1038 1001 L1035 1003" /> 
<path d="M1035 1003 L1031 1005" /> 
<path d="M1031 1005 L1016 1005" /> 
<path d="M1016 1005 L1012 1003" /> 
<path d="M1012 1003 L1009 1001" /> 
<path d="M1009 1001 L1007 996" /> 
<path d="M1007 996 L1007 986" /> 
<path d="M1007 986 L1009 982" /> 
<g style = "stroke-linecap:round;" > 
<path d="M1009 982 L1009 982" /> 
</g></g>
<g style="fill:#A00000; fill-opacity:0.0; 
  stroke:#A00000; stroke-linecap:round; stroke-linejoin:round; stroke-opacity:1.0; stroke-opacity:1.0; stroke-width:6" 
   transform="translate(0 0) scale(1 1)">
<path d="M977 1255 L974 1260" /> 
<path d="M974 1260 L972 1262" /> 
<path d="M972 1262 L967 1264" /> 
<path d="M967 1264 L965 1264" /> 
<path d="M965 1264 L960 1262" /> 
<path d="M960 1262 L958 1260" /> 
<path d="M958 1260 L955 1255" /> 
<path d="M955 1255 L955 1245" /> 
<path d="M955 1245 L958 1241" /> 
<path d="M958 1241 L960 1238" /> 
<path d="M960 1238 L965 1236" /> 
<path d="M965 1236 L967 1236" /> 
<path d="M967 1236 L972 1238" /> 
<path d="M972 1238 L974 1241" /> 
<path d="M974 1241 L977 1245" /> 
<path d="M977 1245 L977 1255" /> 
<path d="M977 1255 L979 1260" /> 
<path d="M979 1260 L981 1262" /> 
<path d="M981 1262 L986 1264" /> 
<path d="M986 1264 L996 1264" /> 
<path d="M996 1264 L1000 1262" /> 
<path d="M1000 1262 L1003 1260" /> 
<path d="M1003 1260 L1005 1255" /> 
<path d="M1005 1255 L1005 1245" /> 
<path d="M1005 1245 L1003 1241" /> 
<path d="M1003 1241 L1000 1238" /> 
<path d="M1000 1238 L996 1236" /> 
<path d="M996 1236 L986 1236" /> 
<path d="M986 1236 L981 1238" /> 
<path d="M981 1238 L979 1241" /> 
<path d="M979 1241 L977 1245" /> 
<g style = "stroke-linecap:round;" > 
<path d="M977 1245 L977 1245" /> 
</g><path d="M1820 1100 L1820 1400" /> 
</g>
<g style="fill:#00A0A0; fill-opacity:0.0; 
  stroke:#00A0A0; stroke-linecap:round; stroke-linejoin:round; stroke-opacity:1.0; stroke-opacity:1.0; stroke-width:6" 
   transform="translate(0 0) scale(1 1)">
<path d="M1807 1027 L1840 1027" /> 
<g style = "stroke-linecap:round;" > 
<path d="M1840 1027 L1840 1027" /> 
</g><path d="M1788 1039 L1824 1050" /> 
<path d="M1824 1050 L1824 1020" /> 
<g style = "stroke-linecap:round;" > 
<path d="M1824 1020 L1824 1020" /> 
</g><path d="M1840 1005 L1807 979" /> 
<g style = "stroke-linecap:round;" > 
<path d="M1807 979 L1807 979" /> 
</g><path d="M1807 1005 L1840 979" /> 
<g style = "stroke-linecap:round;" > 
<path d="M1840 979 L1840 979" /> 
</g><path d="M1790 951 L1790 941" /> 
<path d="M1790 941 L1793 936" /> 
<path d="M1793 936 L1797 932" /> 
<path d="M1797 932 L1807 929" /> 
<path d="M1807 929 L1824 929" /> 
<path d="M1824 929 L1833 932" /> 
<path d="M1833 932 L1838 936" /> 
<path d="M1838 936 L1840 941" /> 
<path d="M1840 941 L1840 951" /> 
<path d="M1840 951 L1838 955" /> 
<path d="M1838 955 L1833 960" /> 
<path d="M1833 960 L1824 962" /> 
<path d="M1824 962 L1807 962" /> 
<path d="M1807 962 L1797 960" /> 
<path d="M1797 960 L1793 955" /> 
<path d="M1793 955 L1790 951" /> 
<path d="M1790 908 L1831 908" /> 
<path d="M1831 908 L1835 906" /> 
<path d="M1835 906 L1838 903" /> 
<path d="M1838 903 L1840 899" /> 
<path d="M1840 899 L1840 889" /> 
<path d="M1840 889 L1838 884" /> 
<path d="M1838 884 L1835 882" /> 
<path d="M1835 882 L1831 880" /> 
<path d="M1831 880 L1790 880" /> 
<g style = "stroke-linecap:round;" > 
<path d="M1790 880 L1790 880" /> 
</g><path d="M1790 863 L1790 835" /> 
<g style = "stroke-linecap:round;" > 
<path d="M1790 835 L1790 835" /> 
</g><path d="M1840 849 L1790 849" /> 
<g style = "stroke-linecap:round;" > 
<path d="M1790 849 L1790 849" /> 
</g><path d="M1816 809 L1840 809" /> 
<g style = "stroke-linecap:round;" > 
<path d="M1840 809 L1840 809" /> 
</g><path d="M1790 825 L1816 809" /> 
<path d="M1816 809 L1790 792" /> 
<g style = "stroke-linecap:round;" > 
<path d="M1790 792 L1790 792" /> 
</g></g>
<g style="fill:#00A0A0; fill-opacity:0.0; 
  stroke:#A00000; stroke-linecap:round; stroke-linejoin:round; stroke-opacity:1.0; stroke-opacity:1.0; stroke-width:6" 
   transform="translate(0 0) scale(1 1)">
<path d="M2020 400 L2320 400" /> 
</g>
<g style="fill:#00A0A0; fill-opacity:0.0; 
  stroke:#00A0A0; stroke-linecap:round; stroke-linejoin:round; stroke-opacity:1.0; stroke-opacity:1.0; stroke-width:6" 
   transform="translate(0 0) scale(1 1)">
<path d="M1816 370 L1826 370" /> 
<path d="M1826 370 L1831 373" /> 
<path d="M1831 373 L1835 377" /> 
<path d="M1835 377 L1838 387" /> 
<path d="M1838 387 L1838 404" /> 
<path d="M1838 404 L1835 413" /> 
<path d="M1835 413 L1831 418" /> 
<path d="M1831 418 L1826 420" /> 
<path d="M1826 420 L1816 420" /> 
<path d="M1816 420 L1812 418" /> 
<path d="M1812 418 L1807 413" /> 
<path d="M1807 413 L1805 404" /> 
<path d="M1805 404 L1805 387" /> 
<path d="M1805 387 L1807 377" /> 
<path d="M1807 377 L1812 373" /> 
<path d="M1812 373 L1816 370" /> 
<path d="M1859 370 L1859 411" /> 
<path d="M1859 411 L1861 415" /> 
<path d="M1861 415 L1864 418" /> 
<path d="M1864 418 L1868 420" /> 
<path d="M1868 420 L1878 420" /> 
<path d="M1878 420 L1883 418" /> 
<path d="M1883 418 L1885 415" /> 
<path d="M1885 415 L1887 411" /> 
<path d="M1887 411 L1887 370" /> 
<g style = "stroke-linecap:round;" > 
<path d="M1887 370 L1887 370" /> 
</g><path d="M1904 370 L1932 370" /> 
<g style = "stroke-linecap:round;" > 
<path d="M1932 370 L1932 370" /> 
</g><path d="M1918 420 L1918 370" /> 
<g style = "stroke-linecap:round;" > 
<path d="M1918 370 L1918 370" /> 
</g><path d="M1958 396 L1958 420" /> 
<g style = "stroke-linecap:round;" > 
<path d="M1958 420 L1958 420" /> 
</g><path d="M1942 370 L1958 396" /> 
<path d="M1958 396 L1975 370" /> 
<g style = "stroke-linecap:round;" > 
<path d="M1975 370 L1975 370" /> 
</g></g>
<g style="fill:#A00000; fill-opacity:0.0; 
  stroke:#A00000; stroke-linecap:round; stroke-linejoin:round; stroke-opacity:1.0; stroke-opacity:1.0; stroke-width:6" 
   transform="translate(0 0) scale(1 1)">
<path d="M2132 340 L2134 338" /> 
<path d="M2134 338 L2139 335" /> 
<path d="M2139 335 L2151 335" /> 
<path d="M2151 335 L2155 338" /> 
<path d="M2155 338 L2158 340" /> 
<path d="M2158 340 L2160 345" /> 
<path d="M2160 345 L2160 350" /> 
<path d="M2160 350 L2158 357" /> 
<path d="M2158 357 L2129 385" /> 
<path d="M2129 385 L2160 385" /> 
<g style = "stroke-linecap:round;" > 
<path d="M2160 385 L2160 385" /> 
</g><path d="M2191 335 L2196 335" /> 
<path d="M2196 335 L2201 338" /> 
<path d="M2201 338 L2203 340" /> 
<path d="M2203 340 L2206 345" /> 
<path d="M2206 345 L2208 354" /> 
<path d="M2208 354 L2208 366" /> 
<path d="M2208 366 L2206 376" /> 
<path d="M2206 376 L2203 380" /> 
<path d="M2203 380 L2201 383" /> 
<path d="M2201 383 L2196 385" /> 
<path d="M2196 385 L2191 385" /> 
<path d="M2191 385 L2187 383" /> 
<path d="M2187 383 L2184 380" /> 
<path d="M2184 380 L2182 376" /> 
<path d="M2182 376 L2180 366" /> 
<path d="M2180 366 L2180 354" /> 
<path d="M2180 354 L2182 345" /> 
<path d="M2182 345 L2184 340" /> 
<path d="M2184 340 L2187 338" /> 
<path d="M2187 338 L2191 335" /> 
<path d="M1870 450 L1870 150" /> 
<path d="M1858 138 L1882 162" /> 
<path d="M1882 138 L1858 162" /> 
</g>
<g style="fill:#00A0A0; fill-opacity:0.0; 
  stroke:#00A0A0; stroke-linecap:round; stroke-linejoin:round; stroke-opacity:1.0; stroke-opacity:1.0; stroke-width:6" 
   transform="translate(0 0) scale(1 1)">
<path d="M1857 566 L1890 566" /> 
<g style = "stroke-linecap:round;" > 
<path d="M1890 566 L1890 566" /> 
</g><path d="M1862 566 L1859 564" /> 
<path d="M1859 564 L1857 559" /> 
<path d="M1857 559 L1857 552" /> 
<path d="M1857 552 L1859 547" /> 
<path d="M1859 547 L1864 545" /> 
<path d="M1864 545 L1890 545" /> 
<g style = "stroke-linecap:round;" > 
<path d="M1890 545 L1890 545" /> 
</g><path d="M1888 500 L1890 504" /> 
<path d="M1890 504 L1890 514" /> 
<path d="M1890 514 L1888 519" /> 
<path d="M1888 519 L1885 521" /> 
<path d="M1885 521 L1881 523" /> 
<path d="M1881 523 L1866 523" /> 
<path d="M1866 523 L1862 521" /> 
<path d="M1862 521 L1859 519" /> 
<path d="M1859 519 L1857 514" /> 
<path d="M1857 514 L1857 504" /> 
<path d="M1857 504 L1859 500" /> 
<g style = "stroke-linecap:round;" > 
<path d="M1859 500 L1859 500" /> 
</g></g>
<g style="fill:#A00000; fill-opacity:0.0; 
  stroke:#A00000; stroke-linecap:round; stroke-linejoin:round; stroke-opacity:1.0; stroke-opacity:1.0; stroke-width:6" 
   transform="translate(0 0) scale(1 1)">
<path d="M1810 338 L1808 336" /> 
<path d="M1808 336 L1805 331" /> 
<path d="M1805 331 L1805 319" /> 
<path d="M1805 319 L1808 315" /> 
<path d="M1808 315 L1810 312" /> 
<path d="M1810 312 L1815 310" /> 
<path d="M1815 310 L1820 310" /> 
<path d="M1820 310 L1827 312" /> 
<path d="M1827 312 L1855 341" /> 
<path d="M1855 341 L1855 310" /> 
<g style = "stroke-linecap:round;" > 
<path d="M1855 310 L1855 310" /> 
</g><path d="M1855 262 L1855 290" /> 
<g style = "stroke-linecap:round;" > 
<path d="M1855 290 L1855 290" /> 
</g><path d="M1855 276 L1805 276" /> 
<path d="M1805 276 L1812 281" /> 
<path d="M1812 281 L1817 286" /> 
<path d="M1817 286 L1820 290" /> 
<g style = "stroke-linecap:round;" > 
<path d="M1820 290 L1820 290" /> 
</g><path d="M1520 1100 L1520 1400" /> 
<path d="M1508 1388 L1532 1412" /> 
<path d="M1532 1388 L1508 1412" /> 
</g>
<g style="fill:#00A0A0; fill-opacity:0.0; 
  stroke:#00A0A0; stroke-linecap:round; stroke-linejoin:round; stroke-opacity:1.0; stroke-opacity:1.0; stroke-width:6" 
   transform="translate(0 0) scale(1 1)">
<path d="M1507 1048 L1540 1048" /> 
<g style = "stroke-linecap:round;" > 
<path d="M1540 1048 L1540 1048" /> 
</g><path d="M1512 1048 L1509 1046" /> 
<path d="M1509 1046 L1507 1041" /> 
<path d="M1507 1041 L1507 1034" /> 
<path d="M1507 1034 L1509 1029" /> 
<path d="M1509 1029 L1514 1027" /> 
<path d="M1514 1027 L1540 1027" /> 
<g style = "stroke-linecap:round;" > 
<path d="M1540 1027 L1540 1027" /> 
</g><path d="M1538 982 L1540 986" /> 
<path d="M1540 986 L1540 996" /> 
<path d="M1540 996 L1538 1001" /> 
<path d="M1538 1001 L1535 1003" /> 
<path d="M1535 1003 L1531 1005" /> 
<path d="M1531 1005 L1516 1005" /> 
<path d="M1516 1005 L1512 1003" /> 
<path d="M1512 1003 L1509 1001" /> 
<path d="M1509 1001 L1507 996" /> 
<path d="M1507 996 L1507 986" /> 
<path d="M1507 986 L1509 982" /> 
<g style = "stroke-linecap:round;" > 
<path d="M1509 982 L1509 982" /> 
</g></g>
<g style="fill:#A00000; fill-opacity:0.0; 
  stroke:#A00000; stroke-linecap:round; stroke-linejoin:round; stroke-opacity:1.0; stroke-opacity:1.0; stroke-width:6" 
   transform="translate(0 0) scale(1 1)">
<path d="M1505 1260 L1505 1288" /> 
<g style = "stroke-linecap:round;" > 
<path d="M1505 1288 L1505 1288" /> 
</g><path d="M1505 1274 L1455 1274" /> 
<path d="M1455 1274 L1462 1279" /> 
<path d="M1462 1279 L1467 1284" /> 
<path d="M1467 1284 L1470 1288" /> 
<g style = "stroke-linecap:round;" > 
<path d="M1470 1288 L1470 1288" /> 
</g><path d="M1460 1240 L1458 1238" /> 
<path d="M1458 1238 L1455 1233" /> 
<path d="M1455 1233 L1455 1221" /> 
<path d="M1455 1221 L1458 1217" /> 
<path d="M1458 1217 L1460 1214" /> 
<path d="M1460 1214 L1465 1212" /> 
<path d="M1465 1212 L1470 1212" /> 
<path d="M1470 1212 L1477 1214" /> 
<path d="M1477 1214 L1505 1243" /> 
<path d="M1505 1243 L1505 1212" /> 
<g style = "stroke-linecap:round;" > 
<path d="M1505 1212 L1505 1212" /> 
</g><path d="M1720 450 L1720 150" /> 
</g>
<g style="fill:#00A0A0; fill-opacity:0.0; 
  stroke:#00A0A0; stroke-linecap:round; stroke-linejoin:round; stroke-opacity:1.0; stroke-opacity:1.0; stroke-width:6" 
   transform="translate(0 0) scale(1 1)">
<path d="M1690 631 L1740 615" /> 
<path d="M1740 615 L1690 598" /> 
<g style = "stroke-linecap:round;" > 
<path d="M1690 598 L1690 598" /> 
</g><path d="M1740 581 L1707 581" /> 
<g style = "stroke-linecap:round;" > 
<path d="M1707 581 L1707 581" /> 
</g><path d="M1716 581 L1712 579" /> 
<path d="M1712 579 L1709 576" /> 
<path d="M1709 576 L1707 572" /> 
<path d="M1707 572 L1707 567" /> 
<g style = "stroke-linecap:round;" > 
<path d="M1707 567 L1707 567" /> 
</g><path d="M1738 531 L1740 536" /> 
<path d="M1740 536 L1740 545" /> 
<path d="M1740 545 L1738 550" /> 
<path d="M1738 550 L1733 552" /> 
<path d="M1733 552 L1714 552" /> 
<path d="M1714 552 L1709 550" /> 
<path d="M1709 550 L1707 545" /> 
<path d="M1707 545 L1707 536" /> 
<path d="M1707 536 L1709 531" /> 
<path d="M1709 531 L1714 529" /> 
<path d="M1714 529 L1719 529" /> 
<path d="M1719 529 L1724 552" /> 
<g style = "stroke-linecap:round;" > 
<path d="M1724 552 L1724 552" /> 
</g><path d="M1707 514 L1707 495" /> 
<g style = "stroke-linecap:round;" > 
<path d="M1707 495 L1707 495" /> 
</g><path d="M1740 507 L1697 507" /> 
<path d="M1697 507 L1693 505" /> 
<path d="M1693 505 L1690 500" /> 
<path d="M1690 500 L1690 495" /> 
<g style = "stroke-linecap:round;" > 
<path d="M1690 495 L1690 495" /> 
</g></g>
<g style="fill:#A00000; fill-opacity:0.0; 
  stroke:#A00000; stroke-linecap:round; stroke-linejoin:round; stroke-opacity:1.0; stroke-opacity:1.0; stroke-width:6" 
   transform="translate(0 0) scale(1 1)">
<path d="M1660 338 L1658 336" /> 
<path d="M1658 336 L1655 331" /> 
<path d="M1655 331 L1655 319" /> 
<path d="M1655 319 L1658 315" /> 
<path d="M1658 315 L1660 312" /> 
<path d="M1660 312 L1665 310" /> 
<path d="M1665 310 L1670 310" /> 
<path d="M1670 310 L1677 312" /> 
<path d="M1677 312 L1705 341" /> 
<path d="M1705 341 L1705 310" /> 
<g style = "stroke-linecap:round;" > 
<path d="M1705 310 L1705 310" /> 
</g><path d="M1660 290 L1658 288" /> 
<path d="M1658 288 L1655 283" /> 
<path d="M1655 283 L1655 271" /> 
<path d="M1655 271 L1658 267" /> 
<path d="M1658 267 L1660 264" /> 
<path d="M1660 264 L1665 262" /> 
<path d="M1665 262 L1670 262" /> 
<path d="M1670 262 L1677 264" /> 
<path d="M1677 264 L1705 293" /> 
<path d="M1705 293 L1705 262" /> 
<g style = "stroke-linecap:round;" > 
<path d="M1705 262 L1705 262" /> 
</g><path d="M1670 1100 L1670 1400" /> 
<path d="M1658 1388 L1682 1412" /> 
<path d="M1682 1388 L1658 1412" /> 
</g>
<g style="fill:#00A0A0; fill-opacity:0.0; 
  stroke:#00A0A0; stroke-linecap:round; stroke-linejoin:round; stroke-opacity:1.0; stroke-opacity:1.0; stroke-width:6" 
   transform="translate(0 0) scale(1 1)">
<path d="M1657 1048 L1690 1048" /> 
<g style = "stroke-linecap:round;" > 
<path d="M1690 1048 L1690 1048" /> 
</g><path d="M1662 1048 L1659 1046" /> 
<path d="M1659 1046 L1657 1041" /> 
<path d="M1657 1041 L1657 1034" /> 
<path d="M1657 1034 L1659 1029" /> 
<path d="M1659 1029 L1664 1027" /> 
<path d="M1664 1027 L1690 1027" /> 
<g style = "stroke-linecap:round;" > 
<path d="M1690 1027 L1690 1027" /> 
</g><path d="M1688 982 L1690 986" /> 
<path d="M1690 986 L1690 996" /> 
<path d="M1690 996 L1688 1001" /> 
<path d="M1688 1001 L1685 1003" /> 
<path d="M1685 1003 L1681 1005" /> 
<path d="M1681 1005 L1666 1005" /> 
<path d="M1666 1005 L1662 1003" /> 
<path d="M1662 1003 L1659 1001" /> 
<path d="M1659 1001 L1657 996" /> 
<path d="M1657 996 L1657 986" /> 
<path d="M1657 986 L1659 982" /> 
<g style = "stroke-linecap:round;" > 
<path d="M1659 982 L1659 982" /> 
</g></g>
<g style="fill:#A00000; fill-opacity:0.0; 
  stroke:#A00000; stroke-linecap:round; stroke-linejoin:round; stroke-opacity:1.0; stroke-opacity:1.0; stroke-width:6" 
   transform="translate(0 0) scale(1 1)">
<path d="M1655 1260 L1655 1288" /> 
<g style = "stroke-linecap:round;" > 
<path d="M1655 1288 L1655 1288" /> 
</g><path d="M1655 1274 L1605 1274" /> 
<path d="M1605 1274 L1612 1279" /> 
<path d="M1612 1279 L1617 1284" /> 
<path d="M1617 1284 L1620 1288" /> 
<g style = "stroke-linecap:round;" > 
<path d="M1620 1288 L1620 1288" /> 
</g><path d="M1605 1243 L1605 1212" /> 
<path d="M1605 1212 L1624 1229" /> 
<path d="M1624 1229 L1624 1221" /> 
<path d="M1624 1221 L1627 1217" /> 
<path d="M1627 1217 L1629 1214" /> 
<path d="M1629 1214 L1634 1212" /> 
<path d="M1634 1212 L1646 1212" /> 
<path d="M1646 1212 L1650 1214" /> 
<path d="M1650 1214 L1653 1217" /> 
<path d="M1653 1217 L1655 1221" /> 
<path d="M1655 1221 L1655 1236" /> 
<path d="M1655 1236 L1653 1240" /> 
<path d="M1653 1240 L1650 1243" /> 
<g style = "stroke-linecap:round;" > 
<path d="M1650 1243 L1650 1243" /> 
</g><path d="M1570 450 L1570 150" /> 
<path d="M1558 138 L1582 162" /> 
<path d="M1582 138 L1558 162" /> 
</g>
<g style="fill:#00A0A0; fill-opacity:0.0; 
  stroke:#00A0A0; stroke-linecap:round; stroke-linejoin:round; stroke-opacity:1.0; stroke-opacity:1.0; stroke-width:6" 
   transform="translate(0 0) scale(1 1)">
<path d="M1557 566 L1590 566" /> 
<g style = "stroke-linecap:round;" > 
<path d="M1590 566 L1590 566" /> 
</g><path d="M1562 566 L1559 564" /> 
<path d="M1559 564 L1557 559" /> 
<path d="M1557 559 L1557 552" /> 
<path d="M1557 552 L1559 547" /> 
<path d="M1559 547 L1564 545" /> 
<path d="M1564 545 L1590 545" /> 
<g style = "stroke-linecap:round;" > 
<path d="M1590 545 L1590 545" /> 
</g><path d="M1588 500 L1590 504" /> 
<path d="M1590 504 L1590 514" /> 
<path d="M1590 514 L1588 519" /> 
<path d="M1588 519 L1585 521" /> 
<path d="M1585 521 L1581 523" /> 
<path d="M1581 523 L1566 523" /> 
<path d="M1566 523 L1562 521" /> 
<path d="M1562 521 L1559 519" /> 
<path d="M1559 519 L1557 514" /> 
<path d="M1557 514 L1557 504" /> 
<path d="M1557 504 L1559 500" /> 
<g style = "stroke-linecap:round;" > 
<path d="M1559 500 L1559 500" /> 
</g></g>
<g style="fill:#A00000; fill-opacity:0.0; 
  stroke:#A00000; stroke-linecap:round; stroke-linejoin:round; stroke-opacity:1.0; stroke-opacity:1.0; stroke-width:6" 
   transform="translate(0 0) scale(1 1)">
<path d="M1510 338 L1508 336" /> 
<path d="M1508 336 L1505 331" /> 
<path d="M1505 331 L1505 319" /> 
<path d="M1505 319 L1508 315" /> 
<path d="M1508 315 L1510 312" /> 
<path d="M1510 312 L1515 310" /> 
<path d="M1515 310 L1520 310" /> 
<path d="M1520 310 L1527 312" /> 
<path d="M1527 312 L1555 341" /> 
<path d="M1555 341 L1555 310" /> 
<g style = "stroke-linecap:round;" > 
<path d="M1555 310 L1555 310" /> 
</g><path d="M1505 293 L1505 262" /> 
<path d="M1505 262 L1524 279" /> 
<path d="M1524 279 L1524 271" /> 
<path d="M1524 271 L1527 267" /> 
<path d="M1527 267 L1529 264" /> 
<path d="M1529 264 L1534 262" /> 
<path d="M1534 262 L1546 262" /> 
<path d="M1546 262 L1550 264" /> 
<path d="M1550 264 L1553 267" /> 
<path d="M1553 267 L1555 271" /> 
<path d="M1555 271 L1555 286" /> 
<path d="M1555 286 L1553 290" /> 
<path d="M1553 290 L1550 293" /> 
<g style = "stroke-linecap:round;" > 
<path d="M1550 293 L1550 293" /> 
</g><path d="M1420 450 L1420 150" /> 
</g>
<g style="fill:#00A0A0; fill-opacity:0.0; 
  stroke:#00A0A0; stroke-linecap:round; stroke-linejoin:round; stroke-opacity:1.0; stroke-opacity:1.0; stroke-width:6" 
   transform="translate(0 0) scale(1 1)">
<path d="M1440 580 L1390 580" /> 
<g style = "stroke-linecap:round;" > 
<path d="M1390 580 L1390 580" /> 
</g><path d="M1414 580 L1414 552" /> 
<g style = "stroke-linecap:round;" > 
<path d="M1414 552 L1414 552" /> 
</g><path d="M1440 552 L1390 552" /> 
<g style = "stroke-linecap:round;" > 
<path d="M1390 552 L1390 552" /> 
</g><path d="M1440 528 L1390 528" /> 
<path d="M1390 528 L1390 509" /> 
<path d="M1390 509 L1393 504" /> 
<path d="M1393 504 L1395 502" /> 
<path d="M1395 502 L1400 500" /> 
<path d="M1400 500 L1407 500" /> 
<path d="M1407 500 L1412 502" /> 
<path d="M1412 502 L1414 504" /> 
<path d="M1414 504 L1416 509" /> 
<path d="M1416 509 L1416 528" /> 
<g style = "stroke-linecap:round;" > 
<path d="M1416 528 L1416 528" /> 
</g></g>
<g style="fill:#A00000; fill-opacity:0.0; 
  stroke:#A00000; stroke-linecap:round; stroke-linejoin:round; stroke-opacity:1.0; stroke-opacity:1.0; stroke-width:6" 
   transform="translate(0 0) scale(1 1)">
<path d="M1360 338 L1358 336" /> 
<path d="M1358 336 L1355 331" /> 
<path d="M1355 331 L1355 319" /> 
<path d="M1355 319 L1358 315" /> 
<path d="M1358 315 L1360 312" /> 
<path d="M1360 312 L1365 310" /> 
<path d="M1365 310 L1370 310" /> 
<path d="M1370 310 L1377 312" /> 
<path d="M1377 312 L1405 341" /> 
<path d="M1405 341 L1405 310" /> 
<g style = "stroke-linecap:round;" > 
<path d="M1405 310 L1405 310" /> 
</g><path d="M1372 267 L1405 267" /> 
<g style = "stroke-linecap:round;" > 
<path d="M1405 267 L1405 267" /> 
</g><path d="M1353 279 L1389 290" /> 
<path d="M1389 290 L1389 260" /> 
<g style = "stroke-linecap:round;" > 
<path d="M1389 260 L1389 260" /> 
</g><path d="M2020 1150 L2320 1150" /> 
<path d="M2308 1138 L2332 1162" /> 
<path d="M2332 1138 L2308 1162" /> 
</g>
<g style="fill:#00A0A0; fill-opacity:0.0; 
  stroke:#00A0A0; stroke-linecap:round; stroke-linejoin:round; stroke-opacity:1.0; stroke-opacity:1.0; stroke-width:6" 
   transform="translate(0 0) scale(1 1)">
<path d="M1904 1137 L1904 1170" /> 
<g style = "stroke-linecap:round;" > 
<path d="M1904 1170 L1904 1170" /> 
</g><path d="M1904 1142 L1906 1139" /> 
<path d="M1906 1139 L1911 1137" /> 
<path d="M1911 1137 L1918 1137" /> 
<path d="M1918 1137 L1923 1139" /> 
<path d="M1923 1139 L1925 1144" /> 
<path d="M1925 1144 L1925 1170" /> 
<g style = "stroke-linecap:round;" > 
<path d="M1925 1170 L1925 1170" /> 
</g><path d="M1970 1168 L1966 1170" /> 
<path d="M1966 1170 L1956 1170" /> 
<path d="M1956 1170 L1951 1168" /> 
<path d="M1951 1168 L1949 1165" /> 
<path d="M1949 1165 L1947 1161" /> 
<path d="M1947 1161 L1947 1146" /> 
<path d="M1947 1146 L1949 1142" /> 
<path d="M1949 1142 L1951 1139" /> 
<path d="M1951 1139 L1956 1137" /> 
<path d="M1956 1137 L1966 1137" /> 
<path d="M1966 1137 L1970 1139" /> 
<g style = "stroke-linecap:round;" > 
<path d="M1970 1139 L1970 1139" /> 
</g></g>
<g style="fill:#A00000; fill-opacity:0.0; 
  stroke:#A00000; stroke-linecap:round; stroke-linejoin:round; stroke-opacity:1.0; stroke-opacity:1.0; stroke-width:6" 
   transform="translate(0 0) scale(1 1)">
<path d="M2160 1135 L2132 1135" /> 
<g style = "stroke-linecap:round;" > 
<path d="M2132 1135 L2132 1135" /> 
</g><path d="M2146 1135 L2146 1085" /> 
<path d="M2146 1085 L2141 1092" /> 
<path d="M2141 1092 L2136 1097" /> 
<path d="M2136 1097 L2132 1100" /> 
<g style = "stroke-linecap:round;" > 
<path d="M2132 1100 L2132 1100" /> 
</g><path d="M2206 1085 L2182 1085" /> 
<path d="M2182 1085 L2180 1109" /> 
<path d="M2180 1109 L2182 1107" /> 
<path d="M2182 1107 L2187 1104" /> 
<path d="M2187 1104 L2199 1104" /> 
<path d="M2199 1104 L2203 1107" /> 
<path d="M2203 1107 L2206 1109" /> 
<path d="M2206 1109 L2208 1114" /> 
<path d="M2208 1114 L2208 1126" /> 
<path d="M2208 1126 L2206 1130" /> 
<path d="M2206 1130 L2203 1133" /> 
<path d="M2203 1133 L2199 1135" /> 
<path d="M2199 1135 L2187 1135" /> 
<path d="M2187 1135 L2182 1133" /> 
<path d="M2182 1133 L2180 1130" /> 
<g style = "stroke-linecap:round;" > 
<path d="M2180 1130 L2180 1130" /> 
</g><path d="M1320 450 L1320 150" /> 
<path d="M1308 138 L1332 162" /> 
<path d="M1332 138 L1308 162" /> 
</g>
<g style="fill:#00A0A0; fill-opacity:0.0; 
  stroke:#00A0A0; stroke-linecap:round; stroke-linejoin:round; stroke-opacity:1.0; stroke-opacity:1.0; stroke-width:6" 
   transform="translate(0 0) scale(1 1)">
<path d="M1340 593 L1316 609" /> 
<g style = "stroke-linecap:round;" > 
<path d="M1316 609 L1316 609" /> 
</g><path d="M1340 621 L1290 621" /> 
<path d="M1290 621 L1290 602" /> 
<path d="M1290 602 L1293 597" /> 
<path d="M1293 597 L1295 595" /> 
<path d="M1295 595 L1300 593" /> 
<path d="M1300 593 L1307 593" /> 
<path d="M1307 593 L1312 595" /> 
<path d="M1312 595 L1314 597" /> 
<path d="M1314 597 L1316 602" /> 
<path d="M1316 602 L1316 621" /> 
<g style = "stroke-linecap:round;" > 
<path d="M1316 621 L1316 621" /> 
</g><path d="M1314 571 L1314 554" /> 
<g style = "stroke-linecap:round;" > 
<path d="M1314 554 L1314 554" /> 
</g><path d="M1340 547 L1340 571" /> 
<path d="M1340 571 L1290 571" /> 
<path d="M1290 571 L1290 547" /> 
<g style = "stroke-linecap:round;" > 
<path d="M1290 547 L1290 547" /> 
</g><path d="M1338 528 L1340 521" /> 
<path d="M1340 521 L1340 509" /> 
<path d="M1340 509 L1338 505" /> 
<path d="M1338 505 L1335 502" /> 
<path d="M1335 502 L1331 500" /> 
<path d="M1331 500 L1326 500" /> 
<path d="M1326 500 L1321 502" /> 
<path d="M1321 502 L1319 505" /> 
<path d="M1319 505 L1316 509" /> 
<path d="M1316 509 L1314 519" /> 
<path d="M1314 519 L1312 524" /> 
<path d="M1312 524 L1309 526" /> 
<path d="M1309 526 L1305 528" /> 
<path d="M1305 528 L1300 528" /> 
<path d="M1300 528 L1295 526" /> 
<path d="M1295 526 L1293 524" /> 
<path d="M1293 524 L1290 519" /> 
<path d="M1290 519 L1290 507" /> 
<path d="M1290 507 L1293 500" /> 
<g style = "stroke-linecap:round;" > 
<path d="M1293 500 L1293 500" /> 
</g></g>
<g style="fill:#A00000; fill-opacity:0.0; 
  stroke:#A00000; stroke-linecap:round; stroke-linejoin:round; stroke-opacity:1.0; stroke-opacity:1.0; stroke-width:6" 
   transform="translate(0 0) scale(1 1)">
<path d="M1260 338 L1258 336" /> 
<path d="M1258 336 L1255 331" /> 
<path d="M1255 331 L1255 319" /> 
<path d="M1255 319 L1258 315" /> 
<path d="M1258 315 L1260 312" /> 
<path d="M1260 312 L1265 310" /> 
<path d="M1265 310 L1270 310" /> 
<path d="M1270 310 L1277 312" /> 
<path d="M1277 312 L1305 341" /> 
<path d="M1305 341 L1305 310" /> 
<g style = "stroke-linecap:round;" > 
<path d="M1305 310 L1305 310" /> 
</g><path d="M1255 264 L1255 288" /> 
<path d="M1255 288 L1279 290" /> 
<path d="M1279 290 L1277 288" /> 
<path d="M1277 288 L1274 283" /> 
<path d="M1274 283 L1274 271" /> 
<path d="M1274 271 L1277 267" /> 
<path d="M1277 267 L1279 264" /> 
<path d="M1279 264 L1284 262" /> 
<path d="M1284 262 L1296 262" /> 
<path d="M1296 262 L1300 264" /> 
<path d="M1300 264 L1303 267" /> 
<path d="M1303 267 L1305 271" /> 
<path d="M1305 271 L1305 283" /> 
<path d="M1305 283 L1303 288" /> 
<path d="M1303 288 L1300 290" /> 
<g style = "stroke-linecap:round;" > 
<path d="M1300 290 L1300 290" /> 
</g><path d="M2020 1000 L2320 1000" /> 
</g>
<g style="fill:#00A0A0; fill-opacity:0.0; 
  stroke:#00A0A0; stroke-linecap:round; stroke-linejoin:round; stroke-opacity:1.0; stroke-opacity:1.0; stroke-width:6" 
   transform="translate(0 0) scale(1 1)">
<path d="M1806 987 L1806 1020" /> 
<g style = "stroke-linecap:round;" > 
<path d="M1806 1020 L1806 1020" /> 
</g><path d="M1794 968 L1783 1004" /> 
<path d="M1783 1004 L1813 1004" /> 
<g style = "stroke-linecap:round;" > 
<path d="M1813 1004 L1813 1004" /> 
</g><path d="M1828 1020 L1854 987" /> 
<g style = "stroke-linecap:round;" > 
<path d="M1854 987 L1854 987" /> 
</g><path d="M1828 987 L1854 1020" /> 
<g style = "stroke-linecap:round;" > 
<path d="M1854 1020 L1854 1020" /> 
</g><path d="M1873 1020 L1873 970" /> 
<g style = "stroke-linecap:round;" > 
<path d="M1873 970 L1873 970" /> 
</g><path d="M1897 1020 L1897 970" /> 
<path d="M1897 970 L1925 1020" /> 
<path d="M1925 1020 L1925 970" /> 
<g style = "stroke-linecap:round;" > 
<path d="M1925 970 L1925 970" /> 
</g><path d="M1958 996 L1958 1020" /> 
<g style = "stroke-linecap:round;" > 
<path d="M1958 1020 L1958 1020" /> 
</g><path d="M1942 970 L1958 996" /> 
<path d="M1958 996 L1975 970" /> 
<g style = "stroke-linecap:round;" > 
<path d="M1975 970 L1975 970" /> 
</g></g>
<g style="fill:#A00000; fill-opacity:0.0; 
  stroke:#A00000; stroke-linecap:round; stroke-linejoin:round; stroke-opacity:1.0; stroke-opacity:1.0; stroke-width:6" 
   transform="translate(0 0) scale(1 1)">
<path d="M2160 985 L2132 985" /> 
<g style = "stroke-linecap:round;" > 
<path d="M2132 985 L2132 985" /> 
</g><path d="M2146 985 L2146 935" /> 
<path d="M2146 935 L2141 942" /> 
<path d="M2141 942 L2136 947" /> 
<path d="M2136 947 L2132 950" /> 
<g style = "stroke-linecap:round;" > 
<path d="M2132 950 L2132 950" /> 
</g><path d="M2203 935 L2194 935" /> 
<path d="M2194 935 L2189 938" /> 
<path d="M2189 938 L2187 940" /> 
<path d="M2187 940 L2182 947" /> 
<path d="M2182 947 L2180 957" /> 
<path d="M2180 957 L2180 976" /> 
<path d="M2180 976 L2182 980" /> 
<path d="M2182 980 L2184 983" /> 
<path d="M2184 983 L2189 985" /> 
<path d="M2189 985 L2199 985" /> 
<path d="M2199 985 L2203 983" /> 
<path d="M2203 983 L2206 980" /> 
<path d="M2206 980 L2208 976" /> 
<path d="M2208 976 L2208 964" /> 
<path d="M2208 964 L2206 959" /> 
<path d="M2206 959 L2203 957" /> 
<path d="M2203 957 L2199 954" /> 
<path d="M2199 954 L2189 954" /> 
<path d="M2189 954 L2184 957" /> 
<path d="M2184 957 L2182 959" /> 
<path d="M2182 959 L2180 964" /> 
<g style = "stroke-linecap:round;" > 
<path d="M2180 964 L2180 964" /> 
</g><path d="M1170 450 L1170 150" /> 
</g>
<g style="fill:#00A0A0; fill-opacity:0.0; 
  stroke:#00A0A0; stroke-linecap:round; stroke-linejoin:round; stroke-opacity:1.0; stroke-opacity:1.0; stroke-width:6" 
   transform="translate(0 0) scale(1 1)">
<path d="M1157 592 L1197 592" /> 
<path d="M1197 592 L1202 594" /> 
<path d="M1202 594 L1205 596" /> 
<path d="M1205 596 L1207 601" /> 
<path d="M1207 601 L1207 608" /> 
<path d="M1207 608 L1205 613" /> 
<g style = "stroke-linecap:round;" > 
<path d="M1205 613 L1205 613" /> 
</g><path d="M1188 592 L1190 596" /> 
<path d="M1190 596 L1190 606" /> 
<path d="M1190 606 L1188 611" /> 
<path d="M1188 611 L1185 613" /> 
<path d="M1185 613 L1181 615" /> 
<path d="M1181 615 L1166 615" /> 
<path d="M1166 615 L1162 613" /> 
<path d="M1162 613 L1159 611" /> 
<path d="M1159 611 L1157 606" /> 
<path d="M1157 606 L1157 596" /> 
<path d="M1157 596 L1159 592" /> 
<g style = "stroke-linecap:round;" > 
<path d="M1159 592 L1159 592" /> 
</g><path d="M1157 568 L1190 568" /> 
<g style = "stroke-linecap:round;" > 
<path d="M1190 568 L1190 568" /> 
</g><path d="M1162 568 L1159 566" /> 
<path d="M1159 566 L1157 561" /> 
<path d="M1157 561 L1157 554" /> 
<path d="M1157 554 L1159 549" /> 
<path d="M1159 549 L1164 547" /> 
<path d="M1164 547 L1190 547" /> 
<g style = "stroke-linecap:round;" > 
<path d="M1190 547 L1190 547" /> 
</g><path d="M1190 502 L1140 502" /> 
<g style = "stroke-linecap:round;" > 
<path d="M1140 502 L1140 502" /> 
</g><path d="M1188 502 L1190 506" /> 
<path d="M1190 506 L1190 516" /> 
<path d="M1190 516 L1188 521" /> 
<path d="M1188 521 L1185 523" /> 
<path d="M1185 523 L1181 525" /> 
<path d="M1181 525 L1166 525" /> 
<path d="M1166 525 L1162 523" /> 
<path d="M1162 523 L1159 521" /> 
<path d="M1159 521 L1157 516" /> 
<path d="M1157 516 L1157 506" /> 
<path d="M1157 506 L1159 502" /> 
<g style = "stroke-linecap:round;" > 
<path d="M1159 502 L1159 502" /> 
</g></g>
<g style="fill:#A00000; fill-opacity:0.0; 
  stroke:#A00000; stroke-linecap:round; stroke-linejoin:round; stroke-opacity:1.0; stroke-opacity:1.0; stroke-width:6" 
   transform="translate(0 0) scale(1 1)">
<path d="M1110 338 L1108 336" /> 
<path d="M1108 336 L1105 331" /> 
<path d="M1105 331 L1105 319" /> 
<path d="M1105 319 L1108 315" /> 
<path d="M1108 315 L1110 312" /> 
<path d="M1110 312 L1115 310" /> 
<path d="M1115 310 L1120 310" /> 
<path d="M1120 310 L1127 312" /> 
<path d="M1127 312 L1155 341" /> 
<path d="M1155 341 L1155 310" /> 
<g style = "stroke-linecap:round;" > 
<path d="M1155 310 L1155 310" /> 
</g><path d="M1105 267 L1105 276" /> 
<path d="M1105 276 L1108 281" /> 
<path d="M1108 281 L1110 283" /> 
<path d="M1110 283 L1117 288" /> 
<path d="M1117 288 L1127 290" /> 
<path d="M1127 290 L1146 290" /> 
<path d="M1146 290 L1150 288" /> 
<path d="M1150 288 L1153 286" /> 
<path d="M1153 286 L1155 281" /> 
<path d="M1155 281 L1155 271" /> 
<path d="M1155 271 L1153 267" /> 
<path d="M1153 267 L1150 264" /> 
<path d="M1150 264 L1146 262" /> 
<path d="M1146 262 L1134 262" /> 
<path d="M1134 262 L1129 264" /> 
<path d="M1129 264 L1127 267" /> 
<path d="M1127 267 L1124 271" /> 
<path d="M1124 271 L1124 281" /> 
<path d="M1124 281 L1127 286" /> 
<path d="M1127 286 L1129 288" /> 
<path d="M1129 288 L1134 290" /> 
<g style = "stroke-linecap:round;" > 
<path d="M1134 290 L1134 290" /> 
</g><path d="M2020 850 L2320 850" /> 
</g>
<g style="fill:#00A0A0; fill-opacity:0.0; 
  stroke:#00A0A0; stroke-linecap:round; stroke-linejoin:round; stroke-opacity:1.0; stroke-opacity:1.0; stroke-width:6" 
   transform="translate(0 0) scale(1 1)">
<path d="M1750 820 L1766 870" /> 
<path d="M1766 870 L1783 820" /> 
<g style = "stroke-linecap:round;" > 
<path d="M1783 820 L1783 820" /> 
</g><path d="M1828 865 L1826 868" /> 
<path d="M1826 868 L1819 870" /> 
<path d="M1819 870 L1814 870" /> 
<path d="M1814 870 L1807 868" /> 
<path d="M1807 868 L1802 863" /> 
<path d="M1802 863 L1800 858" /> 
<path d="M1800 858 L1798 849" /> 
<path d="M1798 849 L1798 842" /> 
<path d="M1798 842 L1800 832" /> 
<path d="M1800 832 L1802 827" /> 
<path d="M1802 827 L1807 823" /> 
<path d="M1807 823 L1814 820" /> 
<path d="M1814 820 L1819 820" /> 
<path d="M1819 820 L1826 823" /> 
<path d="M1826 823 L1828 825" /> 
<g style = "stroke-linecap:round;" > 
<path d="M1828 825 L1828 825" /> 
</g><path d="M1859 820 L1869 820" /> 
<path d="M1869 820 L1874 823" /> 
<path d="M1874 823 L1878 827" /> 
<path d="M1878 827 L1881 837" /> 
<path d="M1881 837 L1881 854" /> 
<path d="M1881 854 L1878 863" /> 
<path d="M1878 863 L1874 868" /> 
<path d="M1874 868 L1869 870" /> 
<path d="M1869 870 L1859 870" /> 
<path d="M1859 870 L1855 868" /> 
<path d="M1855 868 L1850 863" /> 
<path d="M1850 863 L1848 854" /> 
<path d="M1848 854 L1848 837" /> 
<path d="M1848 837 L1850 827" /> 
<path d="M1850 827 L1855 823" /> 
<path d="M1855 823 L1859 820" /> 
<path d="M1902 870 L1902 820" /> 
<path d="M1902 820 L1930 870" /> 
<path d="M1930 870 L1930 820" /> 
<g style = "stroke-linecap:round;" > 
<path d="M1930 820 L1930 820" /> 
</g><path d="M1947 820 L1975 820" /> 
<g style = "stroke-linecap:round;" > 
<path d="M1975 820 L1975 820" /> 
</g><path d="M1961 870 L1961 820" /> 
<g style = "stroke-linecap:round;" > 
<path d="M1961 820 L1961 820" /> 
</g></g>
<g style="fill:#A00000; fill-opacity:0.0; 
  stroke:#A00000; stroke-linecap:round; stroke-linejoin:round; stroke-opacity:1.0; stroke-opacity:1.0; stroke-width:6" 
   transform="translate(0 0) scale(1 1)">
<path d="M2160 835 L2132 835" /> 
<g style = "stroke-linecap:round;" > 
<path d="M2132 835 L2132 835" /> 
</g><path d="M2146 835 L2146 785" /> 
<path d="M2146 785 L2141 792" /> 
<path d="M2141 792 L2136 797" /> 
<path d="M2136 797 L2132 800" /> 
<g style = "stroke-linecap:round;" > 
<path d="M2132 800 L2132 800" /> 
</g><path d="M2177 785 L2210 785" /> 
<path d="M2210 785 L2189 835" /> 
<g style = "stroke-linecap:round;" > 
<path d="M2189 835 L2189 835" /> 
</g><path d="M1020 450 L1020 150" /> 
</g>
<g style="fill:#00A0A0; fill-opacity:0.0; 
  stroke:#00A0A0; stroke-linecap:round; stroke-linejoin:round; stroke-opacity:1.0; stroke-opacity:1.0; stroke-width:6" 
   transform="translate(0 0) scale(1 1)">
<path d="M1038 566 L1040 559" /> 
<path d="M1040 559 L1040 547" /> 
<path d="M1040 547 L1038 543" /> 
<path d="M1038 543 L1035 540" /> 
<path d="M1035 540 L1031 538" /> 
<path d="M1031 538 L1026 538" /> 
<path d="M1026 538 L1021 540" /> 
<path d="M1021 540 L1019 543" /> 
<path d="M1019 543 L1016 547" /> 
<path d="M1016 547 L1014 557" /> 
<path d="M1014 557 L1012 562" /> 
<path d="M1012 562 L1009 564" /> 
<path d="M1009 564 L1005 566" /> 
<path d="M1005 566 L1000 566" /> 
<path d="M1000 566 L995 564" /> 
<path d="M995 564 L993 562" /> 
<path d="M993 562 L990 557" /> 
<path d="M990 557 L990 545" /> 
<path d="M990 545 L993 538" /> 
<g style = "stroke-linecap:round;" > 
<path d="M993 538 L993 538" /> 
</g><path d="M990 523 L990 495" /> 
<g style = "stroke-linecap:round;" > 
<path d="M990 495 L990 495" /> 
</g><path d="M1040 509 L990 509" /> 
<g style = "stroke-linecap:round;" > 
<path d="M990 509 L990 509" /> 
</g></g>
<g style="fill:#A00000; fill-opacity:0.0; 
  stroke:#A00000; stroke-linecap:round; stroke-linejoin:round; stroke-opacity:1.0; stroke-opacity:1.0; stroke-width:6" 
   transform="translate(0 0) scale(1 1)">
<path d="M960 338 L958 336" /> 
<path d="M958 336 L955 331" /> 
<path d="M955 331 L955 319" /> 
<path d="M955 319 L958 315" /> 
<path d="M958 315 L960 312" /> 
<path d="M960 312 L965 310" /> 
<path d="M965 310 L970 310" /> 
<path d="M970 310 L977 312" /> 
<path d="M977 312 L1005 341" /> 
<path d="M1005 341 L1005 310" /> 
<g style = "stroke-linecap:round;" > 
<path d="M1005 310 L1005 310" /> 
</g><path d="M955 293 L955 260" /> 
<path d="M955 260 L1005 281" /> 
<g style = "stroke-linecap:round;" > 
<path d="M1005 281 L1005 281" /> 
</g><path d="M920 450 L920 150" /> 
</g>
<g style="fill:#00A0A0; fill-opacity:0.0; 
  stroke:#00A0A0; stroke-linecap:round; stroke-linejoin:round; stroke-opacity:1.0; stroke-opacity:1.0; stroke-width:6" 
   transform="translate(0 0) scale(1 1)">
<path d="M938 819 L940 815" /> 
<path d="M940 815 L940 805" /> 
<path d="M940 805 L938 800" /> 
<path d="M938 800 L933 798" /> 
<path d="M933 798 L931 798" /> 
<path d="M931 798 L926 800" /> 
<path d="M926 800 L924 805" /> 
<path d="M924 805 L924 812" /> 
<path d="M924 812 L921 817" /> 
<path d="M921 817 L916 819" /> 
<path d="M916 819 L914 819" /> 
<path d="M914 819 L909 817" /> 
<path d="M909 817 L907 812" /> 
<path d="M907 812 L907 805" /> 
<path d="M907 805 L909 800" /> 
<g style = "stroke-linecap:round;" > 
<path d="M909 800 L909 800" /> 
</g><path d="M940 770 L938 775" /> 
<path d="M938 775 L933 777" /> 
<path d="M933 777 L890 777" /> 
<g style = "stroke-linecap:round;" > 
<path d="M890 777 L890 777" /> 
</g><path d="M938 732 L940 737" /> 
<path d="M940 737 L940 746" /> 
<path d="M940 746 L938 751" /> 
<path d="M938 751 L933 753" /> 
<path d="M933 753 L914 753" /> 
<path d="M914 753 L909 751" /> 
<path d="M909 751 L907 746" /> 
<path d="M907 746 L907 737" /> 
<path d="M907 737 L909 732" /> 
<path d="M909 732 L914 730" /> 
<path d="M914 730 L919 730" /> 
<path d="M919 730 L924 753" /> 
<g style = "stroke-linecap:round;" > 
<path d="M924 753 L924 753" /> 
</g><path d="M938 689 L940 694" /> 
<path d="M940 694 L940 703" /> 
<path d="M940 703 L938 708" /> 
<path d="M938 708 L933 710" /> 
<path d="M933 710 L914 710" /> 
<path d="M914 710 L909 708" /> 
<path d="M909 708 L907 703" /> 
<path d="M907 703 L907 694" /> 
<path d="M907 694 L909 689" /> 
<path d="M909 689 L914 687" /> 
<path d="M914 687 L919 687" /> 
<path d="M919 687 L924 710" /> 
<g style = "stroke-linecap:round;" > 
<path d="M924 710 L924 710" /> 
</g><path d="M907 665 L957 665" /> 
<g style = "stroke-linecap:round;" > 
<path d="M957 665 L957 665" /> 
</g><path d="M909 665 L907 660" /> 
<path d="M907 660 L907 651" /> 
<path d="M907 651 L909 646" /> 
<path d="M909 646 L912 644" /> 
<path d="M912 644 L916 641" /> 
<path d="M916 641 L931 641" /> 
<path d="M931 641 L935 644" /> 
<path d="M935 644 L938 646" /> 
<path d="M938 646 L940 651" /> 
<path d="M940 651 L940 660" /> 
<path d="M940 660 L938 665" /> 
<g style = "stroke-linecap:round;" > 
<path d="M938 665 L938 665" /> 
</g><path d="M888 584 L952 627" /> 
<g style = "stroke-linecap:round;" > 
<path d="M952 627 L952 627" /> 
</g><path d="M907 568 L957 568" /> 
<g style = "stroke-linecap:round;" > 
<path d="M957 568 L957 568" /> 
</g><path d="M909 568 L907 563" /> 
<path d="M907 563 L907 554" /> 
<path d="M907 554 L909 549" /> 
<path d="M909 549 L912 547" /> 
<path d="M912 547 L916 544" /> 
<path d="M916 544 L931 544" /> 
<path d="M931 544 L935 547" /> 
<path d="M935 547 L938 549" /> 
<path d="M938 549 L940 554" /> 
<path d="M940 554 L940 563" /> 
<path d="M940 563 L938 568" /> 
<g style = "stroke-linecap:round;" > 
<path d="M938 568 L938 568" /> 
</g><path d="M940 502 L890 502" /> 
<g style = "stroke-linecap:round;" > 
<path d="M890 502 L890 502" /> 
</g><path d="M938 502 L940 506" /> 
<path d="M940 506 L940 516" /> 
<path d="M940 516 L938 521" /> 
<path d="M938 521 L935 523" /> 
<path d="M935 523 L931 525" /> 
<path d="M931 525 L916 525" /> 
<path d="M916 525 L912 523" /> 
<path d="M912 523 L909 521" /> 
<path d="M909 521 L907 516" /> 
<path d="M907 516 L907 506" /> 
<path d="M907 506 L909 502" /> 
<g style = "stroke-linecap:round;" > 
<path d="M909 502 L909 502" /> 
</g></g>
<g style="fill:#A00000; fill-opacity:0.0; 
  stroke:#A00000; stroke-linecap:round; stroke-linejoin:round; stroke-opacity:1.0; stroke-opacity:1.0; stroke-width:6" 
   transform="translate(0 0) scale(1 1)">
<path d="M860 338 L858 336" /> 
<path d="M858 336 L855 331" /> 
<path d="M855 331 L855 319" /> 
<path d="M855 319 L858 315" /> 
<path d="M858 315 L860 312" /> 
<path d="M860 312 L865 310" /> 
<path d="M865 310 L870 310" /> 
<path d="M870 310 L877 312" /> 
<path d="M877 312 L905 341" /> 
<path d="M905 341 L905 310" /> 
<g style = "stroke-linecap:round;" > 
<path d="M905 310 L905 310" /> 
</g><path d="M877 281 L874 286" /> 
<path d="M874 286 L872 288" /> 
<path d="M872 288 L867 290" /> 
<path d="M867 290 L865 290" /> 
<path d="M865 290 L860 288" /> 
<path d="M860 288 L858 286" /> 
<path d="M858 286 L855 281" /> 
<path d="M855 281 L855 271" /> 
<path d="M855 271 L858 267" /> 
<path d="M858 267 L860 264" /> 
<path d="M860 264 L865 262" /> 
<path d="M865 262 L867 262" /> 
<path d="M867 262 L872 264" /> 
<path d="M872 264 L874 267" /> 
<path d="M874 267 L877 271" /> 
<path d="M877 271 L877 281" /> 
<path d="M877 281 L879 286" /> 
<path d="M879 286 L881 288" /> 
<path d="M881 288 L886 290" /> 
<path d="M886 290 L896 290" /> 
<path d="M896 290 L900 288" /> 
<path d="M900 288 L903 286" /> 
<path d="M903 286 L905 281" /> 
<path d="M905 281 L905 271" /> 
<path d="M905 271 L903 267" /> 
<path d="M903 267 L900 264" /> 
<path d="M900 264 L896 262" /> 
<path d="M896 262 L886 262" /> 
<path d="M886 262 L881 264" /> 
<path d="M881 264 L879 267" /> 
<path d="M879 267 L877 271" /> 
<g style = "stroke-linecap:round;" > 
<path d="M877 271 L877 271" /> 
</g><path d="M2020 550 L2320 550" /> 
</g>
<g style="fill:#00A0A0; fill-opacity:0.0; 
  stroke:#00A0A0; stroke-linecap:round; stroke-linejoin:round; stroke-opacity:1.0; stroke-opacity:1.0; stroke-width:6" 
   transform="translate(0 0) scale(1 1)">
<path d="M1859 537 L1871 570" /> 
<path d="M1871 570 L1883 537" /> 
<g style = "stroke-linecap:round;" > 
<path d="M1883 537 L1883 537" /> 
</g><path d="M1923 570 L1923 520" /> 
<g style = "stroke-linecap:round;" > 
<path d="M1923 520 L1923 520" /> 
</g><path d="M1923 568 L1919 570" /> 
<path d="M1919 570 L1909 570" /> 
<path d="M1909 570 L1904 568" /> 
<path d="M1904 568 L1902 565" /> 
<path d="M1902 565 L1900 561" /> 
<path d="M1900 561 L1900 546" /> 
<path d="M1900 546 L1902 542" /> 
<path d="M1902 542 L1904 539" /> 
<path d="M1904 539 L1909 537" /> 
<path d="M1909 537 L1919 537" /> 
<path d="M1919 537 L1923 539" /> 
<g style = "stroke-linecap:round;" > 
<path d="M1923 539 L1923 539" /> 
</g><path d="M1968 570 L1968 520" /> 
<g style = "stroke-linecap:round;" > 
<path d="M1968 520 L1968 520" /> 
</g><path d="M1968 568 L1964 570" /> 
<path d="M1964 570 L1954 570" /> 
<path d="M1954 570 L1949 568" /> 
<path d="M1949 568 L1947 565" /> 
<path d="M1947 565 L1945 561" /> 
<path d="M1945 561 L1945 546" /> 
<path d="M1945 546 L1947 542" /> 
<path d="M1947 542 L1949 539" /> 
<path d="M1949 539 L1954 537" /> 
<path d="M1954 537 L1964 537" /> 
<path d="M1964 537 L1968 539" /> 
<g style = "stroke-linecap:round;" > 
<path d="M1968 539 L1968 539" /> 
</g></g>
<g style="fill:#A00000; fill-opacity:0.0; 
  stroke:#A00000; stroke-linecap:round; stroke-linejoin:round; stroke-opacity:1.0; stroke-opacity:1.0; stroke-width:6" 
   transform="translate(0 0) scale(1 1)">
<path d="M2160 535 L2132 535" /> 
<g style = "stroke-linecap:round;" > 
<path d="M2132 535 L2132 535" /> 
</g><path d="M2146 535 L2146 485" /> 
<path d="M2146 485 L2141 492" /> 
<path d="M2141 492 L2136 497" /> 
<path d="M2136 497 L2132 500" /> 
<g style = "stroke-linecap:round;" > 
<path d="M2132 500 L2132 500" /> 
</g><path d="M2184 535 L2194 535" /> 
<path d="M2194 535 L2199 533" /> 
<path d="M2199 533 L2201 530" /> 
<path d="M2201 530 L2206 523" /> 
<path d="M2206 523 L2208 514" /> 
<path d="M2208 514 L2208 495" /> 
<path d="M2208 495 L2206 490" /> 
<path d="M2206 490 L2203 488" /> 
<path d="M2203 488 L2199 485" /> 
<path d="M2199 485 L2189 485" /> 
<path d="M2189 485 L2184 488" /> 
<path d="M2184 488 L2182 490" /> 
<path d="M2182 490 L2180 495" /> 
<path d="M2180 495 L2180 507" /> 
<path d="M2180 507 L2182 511" /> 
<path d="M2182 511 L2184 514" /> 
<path d="M2184 514 L2189 516" /> 
<path d="M2189 516 L2199 516" /> 
<path d="M2199 516 L2203 514" /> 
<path d="M2203 514 L2206 511" /> 
<path d="M2206 511 L2208 507" /> 
<g style = "stroke-linecap:round;" > 
<path d="M2208 507 L2208 507" /> 
</g></g>
<g style="fill:#000000; fill-opacity:0.0; 
  stroke:#A00000; stroke-linecap:round; stroke-linejoin:round; stroke-opacity:1.0; stroke-opacity:1.0; stroke-width:6" 
   transform="translate(0 0) scale(1 1)">
 <rect x="520" y="350" width="1700" height="850" rx="0"  /> 
<path d="M670 400 L370 400" /> 
</g>
<g style="fill:#00A0A0; fill-opacity:0.0; 
  stroke:#00A0A0; stroke-linecap:round; stroke-linejoin:round; stroke-opacity:1.0; stroke-opacity:1.0; stroke-width:6" 
   transform="translate(0 0) scale(1 1)">
<path d="M731 370 L741 370" /> 
<path d="M741 370 L746 373" /> 
<path d="M746 373 L750 377" /> 
<path d="M750 377 L753 387" /> 
<path d="M753 387 L753 404" /> 
<path d="M753 404 L750 413" /> 
<path d="M750 413 L746 418" /> 
<path d="M746 418 L741 420" /> 
<path d="M741 420 L731 420" /> 
<path d="M731 420 L727 418" /> 
<path d="M727 418 L722 413" /> 
<path d="M722 413 L720 404" /> 
<path d="M720 404 L720 387" /> 
<path d="M720 387 L722 377" /> 
<path d="M722 377 L727 373" /> 
<path d="M727 373 L731 370" /> 
<path d="M774 370 L774 411" /> 
<path d="M774 411 L776 415" /> 
<path d="M776 415 L779 418" /> 
<path d="M779 418 L783 420" /> 
<path d="M783 420 L793 420" /> 
<path d="M793 420 L798 418" /> 
<path d="M798 418 L800 415" /> 
<path d="M800 415 L802 411" /> 
<path d="M802 411 L802 370" /> 
<g style = "stroke-linecap:round;" > 
<path d="M802 370 L802 370" /> 
</g><path d="M819 370 L847 370" /> 
<g style = "stroke-linecap:round;" > 
<path d="M847 370 L847 370" /> 
</g><path d="M833 420 L833 370" /> 
<g style = "stroke-linecap:round;" > 
<path d="M833 370 L833 370" /> 
</g><path d="M859 370 L892 420" /> 
<g style = "stroke-linecap:round;" > 
<path d="M892 420 L892 420" /> 
</g><path d="M892 370 L859 420" /> 
<g style = "stroke-linecap:round;" > 
<path d="M859 420 L859 420" /> 
</g></g>
<g style="fill:#A00000; fill-opacity:0.0; 
  stroke:#A00000; stroke-linecap:round; stroke-linejoin:round; stroke-opacity:1.0; stroke-opacity:1.0; stroke-width:6" 
   transform="translate(0 0) scale(1 1)">
<path d="M534 385 L506 385" /> 
<g style = "stroke-linecap:round;" > 
<path d="M506 385 L506 385" /> 
</g><path d="M520 385 L520 335" /> 
<path d="M520 335 L515 342" /> 
<path d="M515 342 L510 347" /> 
<path d="M510 347 L506 350" /> 
<g style = "stroke-linecap:round;" > 
<path d="M506 350 L506 350" /> 
</g><path d="M670 550 L370 550" /> 
<path d="M358 538 L382 562" /> 
<path d="M382 538 L358 562" /> 
</g>
<g style="fill:#00A0A0; fill-opacity:0.0; 
  stroke:#00A0A0; stroke-linecap:round; stroke-linejoin:round; stroke-opacity:1.0; stroke-opacity:1.0; stroke-width:6" 
   transform="translate(0 0) scale(1 1)">
<path d="M722 537 L722 570" /> 
<g style = "stroke-linecap:round;" > 
<path d="M722 570 L722 570" /> 
</g><path d="M722 542 L724 539" /> 
<path d="M724 539 L729 537" /> 
<path d="M729 537 L736 537" /> 
<path d="M736 537 L741 539" /> 
<path d="M741 539 L743 544" /> 
<path d="M743 544 L743 570" /> 
<g style = "stroke-linecap:round;" > 
<path d="M743 570 L743 570" /> 
</g><path d="M788 568 L784 570" /> 
<path d="M784 570 L774 570" /> 
<path d="M774 570 L769 568" /> 
<path d="M769 568 L767 565" /> 
<path d="M767 565 L765 561" /> 
<path d="M765 561 L765 546" /> 
<path d="M765 546 L767 542" /> 
<path d="M767 542 L769 539" /> 
<path d="M769 539 L774 537" /> 
<path d="M774 537 L784 537" /> 
<path d="M784 537 L788 539" /> 
<g style = "stroke-linecap:round;" > 
<path d="M788 539 L788 539" /> 
</g></g>
<g style="fill:#A00000; fill-opacity:0.0; 
  stroke:#A00000; stroke-linecap:round; stroke-linejoin:round; stroke-opacity:1.0; stroke-opacity:1.0; stroke-width:6" 
   transform="translate(0 0) scale(1 1)">
<path d="M506 490 L508 488" /> 
<path d="M508 488 L513 485" /> 
<path d="M513 485 L525 485" /> 
<path d="M525 485 L529 488" /> 
<path d="M529 488 L532 490" /> 
<path d="M532 490 L534 495" /> 
<path d="M534 495 L534 500" /> 
<path d="M534 500 L532 507" /> 
<path d="M532 507 L503 535" /> 
<path d="M503 535 L534 535" /> 
<g style = "stroke-linecap:round;" > 
<path d="M534 535 L534 535" /> 
</g><path d="M670 700 L370 700" /> 
<path d="M358 688 L382 712" /> 
<path d="M382 688 L358 712" /> 
</g>
<g style="fill:#00A0A0; fill-opacity:0.0; 
  stroke:#00A0A0; stroke-linecap:round; stroke-linejoin:round; stroke-opacity:1.0; stroke-opacity:1.0; stroke-width:6" 
   transform="translate(0 0) scale(1 1)">
<path d="M722 687 L722 720" /> 
<g style = "stroke-linecap:round;" > 
<path d="M722 720 L722 720" /> 
</g><path d="M722 692 L724 689" /> 
<path d="M724 689 L729 687" /> 
<path d="M729 687 L736 687" /> 
<path d="M736 687 L741 689" /> 
<path d="M741 689 L743 694" /> 
<path d="M743 694 L743 720" /> 
<g style = "stroke-linecap:round;" > 
<path d="M743 720 L743 720" /> 
</g><path d="M788 718 L784 720" /> 
<path d="M784 720 L774 720" /> 
<path d="M774 720 L769 718" /> 
<path d="M769 718 L767 715" /> 
<path d="M767 715 L765 711" /> 
<path d="M765 711 L765 696" /> 
<path d="M765 696 L767 692" /> 
<path d="M767 692 L769 689" /> 
<path d="M769 689 L774 687" /> 
<path d="M774 687 L784 687" /> 
<path d="M784 687 L788 689" /> 
<g style = "stroke-linecap:round;" > 
<path d="M788 689 L788 689" /> 
</g></g>
<g style="fill:#A00000; fill-opacity:0.0; 
  stroke:#A00000; stroke-linecap:round; stroke-linejoin:round; stroke-opacity:1.0; stroke-opacity:1.0; stroke-width:6" 
   transform="translate(0 0) scale(1 1)">
<path d="M503 635 L534 635" /> 
<path d="M534 635 L517 654" /> 
<path d="M517 654 L525 654" /> 
<path d="M525 654 L529 657" /> 
<path d="M529 657 L532 659" /> 
<path d="M532 659 L534 664" /> 
<path d="M534 664 L534 676" /> 
<path d="M534 676 L532 680" /> 
<path d="M532 680 L529 683" /> 
<path d="M529 683 L525 685" /> 
<path d="M525 685 L510 685" /> 
<path d="M510 685 L506 683" /> 
<path d="M506 683 L503 680" /> 
<g style = "stroke-linecap:round;" > 
<path d="M503 680 L503 680" /> 
</g><path d="M670 850 L370 850" /> 
<path d="M358 838 L382 862" /> 
<path d="M382 838 L358 862" /> 
</g>
<g style="fill:#00A0A0; fill-opacity:0.0; 
  stroke:#00A0A0; stroke-linecap:round; stroke-linejoin:round; stroke-opacity:1.0; stroke-opacity:1.0; stroke-width:6" 
   transform="translate(0 0) scale(1 1)">
<path d="M722 837 L722 870" /> 
<g style = "stroke-linecap:round;" > 
<path d="M722 870 L722 870" /> 
</g><path d="M722 842 L724 839" /> 
<path d="M724 839 L729 837" /> 
<path d="M729 837 L736 837" /> 
<path d="M736 837 L741 839" /> 
<path d="M741 839 L743 844" /> 
<path d="M743 844 L743 870" /> 
<g style = "stroke-linecap:round;" > 
<path d="M743 870 L743 870" /> 
</g><path d="M788 868 L784 870" /> 
<path d="M784 870 L774 870" /> 
<path d="M774 870 L769 868" /> 
<path d="M769 868 L767 865" /> 
<path d="M767 865 L765 861" /> 
<path d="M765 861 L765 846" /> 
<path d="M765 846 L767 842" /> 
<path d="M767 842 L769 839" /> 
<path d="M769 839 L774 837" /> 
<path d="M774 837 L784 837" /> 
<path d="M784 837 L788 839" /> 
<g style = "stroke-linecap:round;" > 
<path d="M788 839 L788 839" /> 
</g></g>
<g style="fill:#A00000; fill-opacity:0.0; 
  stroke:#A00000; stroke-linecap:round; stroke-linejoin:round; stroke-opacity:1.0; stroke-opacity:1.0; stroke-width:6" 
   transform="translate(0 0) scale(1 1)">
<path d="M529 802 L529 835" /> 
<g style = "stroke-linecap:round;" > 
<path d="M529 835 L529 835" /> 
</g><path d="M517 783 L506 819" /> 
<path d="M506 819 L536 819" /> 
<g style = "stroke-linecap:round;" > 
<path d="M536 819 L536 819" /> 
</g><path d="M670 850 L370 850" /> 
<path d="M358 838 L382 862" /> 
<path d="M382 838 L358 862" /> 
</g>
<g style="fill:#00A0A0; fill-opacity:0.0; 
  stroke:#00A0A0; stroke-linecap:round; stroke-linejoin:round; stroke-opacity:1.0; stroke-opacity:1.0; stroke-width:6" 
   transform="translate(0 0) scale(1 1)">
<path d="M722 837 L722 870" /> 
<g style = "stroke-linecap:round;" > 
<path d="M722 870 L722 870" /> 
</g><path d="M722 842 L724 839" /> 
<path d="M724 839 L729 837" /> 
<path d="M729 837 L736 837" /> 
<path d="M736 837 L741 839" /> 
<path d="M741 839 L743 844" /> 
<path d="M743 844 L743 870" /> 
<g style = "stroke-linecap:round;" > 
<path d="M743 870 L743 870" /> 
</g><path d="M788 868 L784 870" /> 
<path d="M784 870 L774 870" /> 
<path d="M774 870 L769 868" /> 
<path d="M769 868 L767 865" /> 
<path d="M767 865 L765 861" /> 
<path d="M765 861 L765 846" /> 
<path d="M765 846 L767 842" /> 
<path d="M767 842 L769 839" /> 
<path d="M769 839 L774 837" /> 
<path d="M774 837 L784 837" /> 
<path d="M784 837 L788 839" /> 
<g style = "stroke-linecap:round;" > 
<path d="M788 839 L788 839" /> 
</g></g>
<g style="fill:#A00000; fill-opacity:0.0; 
  stroke:#A00000; stroke-linecap:round; stroke-linejoin:round; stroke-opacity:1.0; stroke-opacity:1.0; stroke-width:6" 
   transform="translate(0 0) scale(1 1)">
<path d="M529 802 L529 835" /> 
<g style = "stroke-linecap:round;" > 
<path d="M529 835 L529 835" /> 
</g><path d="M517 783 L506 819" /> 
<path d="M506 819 L536 819" /> 
<g style = "stroke-linecap:round;" > 
<path d="M536 819 L536 819" /> 
</g><path d="M670 850 L370 850" /> 
<path d="M358 838 L382 862" /> 
<path d="M382 838 L358 862" /> 
</g>
<g style="fill:#00A0A0; fill-opacity:0.0; 
  stroke:#00A0A0; stroke-linecap:round; stroke-linejoin:round; stroke-opacity:1.0; stroke-opacity:1.0; stroke-width:6" 
   transform="translate(0 0) scale(1 1)">
<path d="M722 837 L722 870" /> 
<g style = "stroke-linecap:round;" > 
<path d="M722 870 L722 870" /> 
</g><path d="M722 842 L724 839" /> 
<path d="M724 839 L729 837" /> 
<path d="M729 837 L736 837" /> 
<path d="M736 837 L741 839" /> 
<path d="M741 839 L743 844" /> 
<path d="M743 844 L743 870" /> 
<g style = "stroke-linecap:round;" > 
<path d="M743 870 L743 870" /> 
</g><path d="M788 868 L784 870" /> 
<path d="M784 870 L774 870" /> 
<path d="M774 870 L769 868" /> 
<path d="M769 868 L767 865" /> 
<path d="M767 865 L765 861" /> 
<path d="M765 861 L765 846" /> 
<path d="M765 846 L767 842" /> 
<path d="M767 842 L769 839" /> 
<path d="M769 839 L774 837" /> 
<path d="M774 837 L784 837" /> 
<path d="M784 837 L788 839" /> 
<g style = "stroke-linecap:round;" > 
<path d="M788 839 L788 839" /> 
</g></g>
<g style="fill:#A00000; fill-opacity:0.0; 
  stroke:#A00000; stroke-linecap:round; stroke-linejoin:round; stroke-opacity:1.0; stroke-opacity:1.0; stroke-width:6" 
   transform="translate(0 0) scale(1 1)">
<path d="M529 802 L529 835" /> 
<g style = "stroke-linecap:round;" > 
<path d="M529 835 L529 835" /> 
</g><path d="M517 783 L506 819" /> 
<path d="M506 819 L536 819" /> 
<g style = "stroke-linecap:round;" > 
<path d="M536 819 L536 819" /> 
</g><path d="M670 850 L370 850" /> 
<path d="M358 838 L382 862" /> 
<path d="M382 838 L358 862" /> 
</g>
<g style="fill:#00A0A0; fill-opacity:0.0; 
  stroke:#00A0A0; stroke-linecap:round; stroke-linejoin:round; stroke-opacity:1.0; stroke-opacity:1.0; stroke-width:6" 
   transform="translate(0 0) scale(1 1)">
<path d="M722 837 L722 870" /> 
<g style = "stroke-linecap:round;" > 
<path d="M722 870 L722 870" /> 
</g><path d="M722 842 L724 839" /> 
<path d="M724 839 L729 837" /> 
<path d="M729 837 L736 837" /> 
<path d="M736 837 L741 839" /> 
<path d="M741 839 L743 844" /> 
<path d="M743 844 L743 870" /> 
<g style = "stroke-linecap:round;" > 
<path d="M743 870 L743 870" /> 
</g><path d="M788 868 L784 870" /> 
<path d="M784 870 L774 870" /> 
<path d="M774 870 L769 868" /> 
<path d="M769 868 L767 865" /> 
<path d="M767 865 L765 861" /> 
<path d="M765 861 L765 846" /> 
<path d="M765 846 L767 842" /> 
<path d="M767 842 L769 839" /> 
<path d="M769 839 L774 837" /> 
<path d="M774 837 L784 837" /> 
<path d="M784 837 L788 839" /> 
<g style = "stroke-linecap:round;" > 
<path d="M788 839 L788 839" /> 
</g></g>
<g style="fill:#A00000; fill-opacity:0.0; 
  stroke:#A00000; stroke-linecap:round; stroke-linejoin:round; stroke-opacity:1.0; stroke-opacity:1.0; stroke-width:6" 
   transform="translate(0 0) scale(1 1)">
<path d="M529 802 L529 835" /> 
<g style = "stroke-linecap:round;" > 
<path d="M529 835 L529 835" /> 
</g><path d="M517 783 L506 819" /> 
<path d="M506 819 L536 819" /> 
<g style = "stroke-linecap:round;" > 
<path d="M536 819 L536 819" /> 
</g><path d="M670 850 L370 850" /> 
<path d="M358 838 L382 862" /> 
<path d="M382 838 L358 862" /> 
</g>
<g style="fill:#00A0A0; fill-opacity:0.0; 
  stroke:#00A0A0; stroke-linecap:round; stroke-linejoin:round; stroke-opacity:1.0; stroke-opacity:1.0; stroke-width:6" 
   transform="translate(0 0) scale(1 1)">
<path d="M722 837 L722 870" /> 
<g style = "stroke-linecap:round;" > 
<path d="M722 870 L722 870" /> 
</g><path d="M722 842 L724 839" /> 
<path d="M724 839 L729 837" /> 
<path d="M729 837 L736 837" /> 
<path d="M736 837 L741 839" /> 
<path d="M741 839 L743 844" /> 
<path d="M743 844 L743 870" /> 
<g style = "stroke-linecap:round;" > 
<path d="M743 870 L743 870" /> 
</g><path d="M788 868 L784 870" /> 
<path d="M784 870 L774 870" /> 
<path d="M774 870 L769 868" /> 
<path d="M769 868 L767 865" /> 
<path d="M767 865 L765 861" /> 
<path d="M765 861 L765 846" /> 
<path d="M765 846 L767 842" /> 
<path d="M767 842 L769 839" /> 
<path d="M769 839 L774 837" /> 
<path d="M774 837 L784 837" /> 
<path d="M784 837 L788 839" /> 
<g style = "stroke-linecap:round;" > 
<path d="M788 839 L788 839" /> 
</g></g>
<g style="fill:#A00000; fill-opacity:0.0; 
  stroke:#A00000; stroke-linecap:round; stroke-linejoin:round; stroke-opacity:1.0; stroke-opacity:1.0; stroke-width:6" 
   transform="translate(0 0) scale(1 1)">
<path d="M529 802 L529 835" /> 
<g style = "stroke-linecap:round;" > 
<path d="M529 835 L529 835" /> 
</g><path d="M517 783 L506 819" /> 
<path d="M506 819 L536 819" /> 
<g style = "stroke-linecap:round;" > 
<path d="M536 819 L536 819" /> 
</g><path d="M670 850 L370 850" /> 
<path d="M358 838 L382 862" /> 
<path d="M382 838 L358 862" /> 
</g>
<g style="fill:#00A0A0; fill-opacity:0.0; 
  stroke:#00A0A0; stroke-linecap:round; stroke-linejoin:round; stroke-opacity:1.0; stroke-opacity:1.0; stroke-width:6" 
   transform="translate(0 0) scale(1 1)">
<path d="M722 837 L722 870" /> 
<g style = "stroke-linecap:round;" > 
<path d="M722 870 L722 870" /> 
</g><path d="M722 842 L724 839" /> 
<path d="M724 839 L729 837" /> 
<path d="M729 837 L736 837" /> 
<path d="M736 837 L741 839" /> 
<path d="M741 839 L743 844" /> 
<path d="M743 844 L743 870" /> 
<g style = "stroke-linecap:round;" > 
<path d="M743 870 L743 870" /> 
</g><path d="M788 868 L784 870" /> 
<path d="M784 870 L774 870" /> 
<path d="M774 870 L769 868" /> 
<path d="M769 868 L767 865" /> 
<path d="M767 865 L765 861" /> 
<path d="M765 861 L765 846" /> 
<path d="M765 846 L767 842" /> 
<path d="M767 842 L769 839" /> 
<path d="M769 839 L774 837" /> 
<path d="M774 837 L784 837" /> 
<path d="M784 837 L788 839" /> 
<g style = "stroke-linecap:round;" > 
<path d="M788 839 L788 839" /> 
</g></g>
<g style="fill:#A00000; fill-opacity:0.0; 
  stroke:#A00000; stroke-linecap:round; stroke-linejoin:round; stroke-opacity:1.0; stroke-opacity:1.0; stroke-width:6" 
   transform="translate(0 0) scale(1 1)">
<path d="M529 802 L529 835" /> 
<g style = "stroke-linecap:round;" > 
<path d="M529 835 L529 835" /> 
</g><path d="M517 783 L506 819" /> 
<path d="M506 819 L536 819" /> 
<g style = "stroke-linecap:round;" > 
<path d="M536 819 L536 819" /> 
</g><path d="M670 850 L370 850" /> 
<path d="M358 838 L382 862" /> 
<path d="M382 838 L358 862" /> 
</g>
<g style="fill:#00A0A0; fill-opacity:0.0; 
  stroke:#00A0A0; stroke-linecap:round; stroke-linejoin:round; stroke-opacity:1.0; stroke-opacity:1.0; stroke-width:6" 
   transform="translate(0 0) scale(1 1)">
<path d="M722 837 L722 870" /> 
<g style = "stroke-linecap:round;" > 
<path d="M722 870 L722 870" /> 
</g><path d="M722 842 L724 839" /> 
<path d="M724 839 L729 837" /> 
<path d="M729 837 L736 837" /> 
<path d="M736 837 L741 839" /> 
<path d="M741 839 L743 844" /> 
<path d="M743 844 L743 870" /> 
<g style = "stroke-linecap:round;" > 
<path d="M743 870 L743 870" /> 
</g><path d="M788 868 L784 870" /> 
<path d="M784 870 L774 870" /> 
<path d="M774 870 L769 868" /> 
<path d="M769 868 L767 865" /> 
<path d="M767 865 L765 861" /> 
<path d="M765 861 L765 846" /> 
<path d="M765 846 L767 842" /> 
<path d="M767 842 L769 839" /> 
<path d="M769 839 L774 837" /> 
<path d="M774 837 L784 837" /> 
<path d="M784 837 L788 839" /> 
<g style = "stroke-linecap:round;" > 
<path d="M788 839 L788 839" /> 
</g></g>
<g style="fill:#A00000; fill-opacity:0.0; 
  stroke:#A00000; stroke-linecap:round; stroke-linejoin:round; stroke-opacity:1.0; stroke-opacity:1.0; stroke-width:6" 
   transform="translate(0 0) scale(1 1)">
<path d="M529 802 L529 835" /> 
<g style = "stroke-linecap:round;" > 
<path d="M529 835 L529 835" /> 
</g><path d="M517 783 L506 819" /> 
<path d="M506 819 L536 819" /> 
<g style = "stroke-linecap:round;" > 
<path d="M536 819 L536 819" /> 
</g><path d="M670 850 L370 850" /> 
<path d="M358 838 L382 862" /> 
<path d="M382 838 L358 862" /> 
</g>
<g style="fill:#00A0A0; fill-opacity:0.0; 
  stroke:#00A0A0; stroke-linecap:round; stroke-linejoin:round; stroke-opacity:1.0; stroke-opacity:1.0; stroke-width:6" 
   transform="translate(0 0) scale(1 1)">
<path d="M722 837 L722 870" /> 
<g style = "stroke-linecap:round;" > 
<path d="M722 870 L722 870" /> 
</g><path d="M722 842 L724 839" /> 
<path d="M724 839 L729 837" /> 
<path d="M729 837 L736 837" /> 
<path d="M736 837 L741 839" /> 
<path d="M741 839 L743 844" /> 
<path d="M743 844 L743 870" /> 
<g style = "stroke-linecap:round;" > 
<path d="M743 870 L743 870" /> 
</g><path d="M788 868 L784 870" /> 
<path d="M784 870 L774 870" /> 
<path d="M774 870 L769 868" /> 
<path d="M769 868 L767 865" /> 
<path d="M767 865 L765 861" /> 
<path d="M765 861 L765 846" /> 
<path d="M765 846 L767 842" /> 
<path d="M767 842 L769 839" /> 
<path d="M769 839 L774 837" /> 
<path d="M774 837 L784 837" /> 
<path d="M784 837 L788 839" /> 
<g style = "stroke-linecap:round;" > 
<path d="M788 839 L788 839" /> 
</g></g>
<g style="fill:#A00000; fill-opacity:0.0; 
  stroke:#A00000; stroke-linecap:round; stroke-linejoin:round; stroke-opacity:1.0; stroke-opacity:1.0; stroke-width:6" 
   transform="translate(0 0) scale(1 1)">
<path d="M529 802 L529 835" /> 
<g style = "stroke-linecap:round;" > 
<path d="M529 835 L529 835" /> 
</g><path d="M517 783 L506 819" /> 
<path d="M506 819 L536 819" /> 
<g style = "stroke-linecap:round;" > 
<path d="M536 819 L536 819" /> 
</g><path d="M670 1000 L370 1000" /> 
</g>
<g style="fill:#00A0A0; fill-opacity:0.0; 
  stroke:#00A0A0; stroke-linecap:round; stroke-linejoin:round; stroke-opacity:1.0; stroke-opacity:1.0; stroke-width:6" 
   transform="translate(0 0) scale(1 1)">
<path d="M743 987 L743 1020" /> 
<g style = "stroke-linecap:round;" > 
<path d="M743 1020 L743 1020" /> 
</g><path d="M731 968 L720 1004" /> 
<path d="M720 1004 L750 1004" /> 
<g style = "stroke-linecap:round;" > 
<path d="M750 1004 L750 1004" /> 
</g><path d="M765 1020 L791 987" /> 
<g style = "stroke-linecap:round;" > 
<path d="M791 987 L791 987" /> 
</g><path d="M765 987 L791 1020" /> 
<g style = "stroke-linecap:round;" > 
<path d="M791 1020 L791 1020" /> 
</g><path d="M810 1020 L810 987" /> 
<g style = "stroke-linecap:round;" > 
<path d="M810 987 L810 987" /> 
</g><path d="M810 970 L808 973" /> 
<path d="M808 973 L810 975" /> 
<path d="M810 975 L812 973" /> 
<path d="M812 973 L810 970" /> 
<path d="M810 970 L810 975" /> 
<g style = "stroke-linecap:round;" > 
<path d="M810 975 L810 975" /> 
</g><path d="M834 987 L834 1020" /> 
<g style = "stroke-linecap:round;" > 
<path d="M834 1020 L834 1020" /> 
</g><path d="M834 992 L836 989" /> 
<path d="M836 989 L841 987" /> 
<path d="M841 987 L848 987" /> 
<path d="M848 987 L853 989" /> 
<path d="M853 989 L855 994" /> 
<path d="M855 994 L855 1020" /> 
<g style = "stroke-linecap:round;" > 
<path d="M855 1020 L855 1020" /> 
</g><path d="M874 970 L907 1020" /> 
<g style = "stroke-linecap:round;" > 
<path d="M907 1020 L907 1020" /> 
</g><path d="M907 970 L874 1020" /> 
<g style = "stroke-linecap:round;" > 
<path d="M874 1020 L874 1020" /> 
</g></g>
<g style="fill:#A00000; fill-opacity:0.0; 
  stroke:#A00000; stroke-linecap:round; stroke-linejoin:round; stroke-opacity:1.0; stroke-opacity:1.0; stroke-width:6" 
   transform="translate(0 0) scale(1 1)">
<path d="M532 935 L508 935" /> 
<path d="M508 935 L506 959" /> 
<path d="M506 959 L508 957" /> 
<path d="M508 957 L513 954" /> 
<path d="M513 954 L525 954" /> 
<path d="M525 954 L529 957" /> 
<path d="M529 957 L532 959" /> 
<path d="M532 959 L534 964" /> 
<path d="M534 964 L534 976" /> 
<path d="M534 976 L532 980" /> 
<path d="M532 980 L529 983" /> 
<path d="M529 983 L525 985" /> 
<path d="M525 985 L513 985" /> 
<path d="M513 985 L508 983" /> 
<path d="M508 983 L506 980" /> 
<g style = "stroke-linecap:round;" > 
<path d="M506 980 L506 980" /> 
</g><path d="M670 1150 L370 1150" /> 
<path d="M358 1138 L382 1162" /> 
<path d="M382 1138 L358 1162" /> 
</g>
<g style="fill:#00A0A0; fill-opacity:0.0; 
  stroke:#00A0A0; stroke-linecap:round; stroke-linejoin:round; stroke-opacity:1.0; stroke-opacity:1.0; stroke-width:6" 
   transform="translate(0 0) scale(1 1)">
<path d="M722 1137 L722 1170" /> 
<g style = "stroke-linecap:round;" > 
<path d="M722 1170 L722 1170" /> 
</g><path d="M722 1142 L724 1139" /> 
<path d="M724 1139 L729 1137" /> 
<path d="M729 1137 L736 1137" /> 
<path d="M736 1137 L741 1139" /> 
<path d="M741 1139 L743 1144" /> 
<path d="M743 1144 L743 1170" /> 
<g style = "stroke-linecap:round;" > 
<path d="M743 1170 L743 1170" /> 
</g><path d="M788 1168 L784 1170" /> 
<path d="M784 1170 L774 1170" /> 
<path d="M774 1170 L769 1168" /> 
<path d="M769 1168 L767 1165" /> 
<path d="M767 1165 L765 1161" /> 
<path d="M765 1161 L765 1146" /> 
<path d="M765 1146 L767 1142" /> 
<path d="M767 1142 L769 1139" /> 
<path d="M769 1139 L774 1137" /> 
<path d="M774 1137 L784 1137" /> 
<path d="M784 1137 L788 1139" /> 
<g style = "stroke-linecap:round;" > 
<path d="M788 1139 L788 1139" /> 
</g></g>
<g style="fill:#A00000; fill-opacity:0.0; 
  stroke:#A00000; stroke-linecap:round; stroke-linejoin:round; stroke-opacity:1.0; stroke-opacity:1.0; stroke-width:6" 
   transform="translate(0 0) scale(1 1)">
<path d="M529 1085 L520 1085" /> 
<path d="M520 1085 L515 1088" /> 
<path d="M515 1088 L513 1090" /> 
<path d="M513 1090 L508 1097" /> 
<path d="M508 1097 L506 1107" /> 
<path d="M506 1107 L506 1126" /> 
<path d="M506 1126 L508 1130" /> 
<path d="M508 1130 L510 1133" /> 
<path d="M510 1133 L515 1135" /> 
<path d="M515 1135 L525 1135" /> 
<path d="M525 1135 L529 1133" /> 
<path d="M529 1133 L532 1130" /> 
<path d="M532 1130 L534 1126" /> 
<path d="M534 1126 L534 1114" /> 
<path d="M534 1114 L532 1109" /> 
<path d="M532 1109 L529 1107" /> 
<path d="M529 1107 L525 1104" /> 
<path d="M525 1104 L515 1104" /> 
<path d="M515 1104 L510 1107" /> 
<path d="M510 1107 L508 1109" /> 
<path d="M508 1109 L506 1114" /> 
<g style = "stroke-linecap:round;" > 
<path d="M506 1114 L506 1114" /> 
</g><path d="M920 1100 L920 1400" /> 
</g>
<g style="fill:#00A0A0; fill-opacity:0.0; 
  stroke:#00A0A0; stroke-linecap:round; stroke-linejoin:round; stroke-opacity:1.0; stroke-opacity:1.0; stroke-width:6" 
   transform="translate(0 0) scale(1 1)">
<path d="M907 1027 L940 1027" /> 
<g style = "stroke-linecap:round;" > 
<path d="M940 1027 L940 1027" /> 
</g><path d="M888 1039 L924 1050" /> 
<path d="M924 1050 L924 1020" /> 
<g style = "stroke-linecap:round;" > 
<path d="M924 1020 L924 1020" /> 
</g><path d="M940 1005 L907 979" /> 
<g style = "stroke-linecap:round;" > 
<path d="M907 979 L907 979" /> 
</g><path d="M907 1005 L940 979" /> 
<g style = "stroke-linecap:round;" > 
<path d="M940 979 L940 979" /> 
</g><path d="M890 951 L890 941" /> 
<path d="M890 941 L893 936" /> 
<path d="M893 936 L897 932" /> 
<path d="M897 932 L907 929" /> 
<path d="M907 929 L924 929" /> 
<path d="M924 929 L933 932" /> 
<path d="M933 932 L938 936" /> 
<path d="M938 936 L940 941" /> 
<path d="M940 941 L940 951" /> 
<path d="M940 951 L938 955" /> 
<path d="M938 955 L933 960" /> 
<path d="M933 960 L924 962" /> 
<path d="M924 962 L907 962" /> 
<path d="M907 962 L897 960" /> 
<path d="M897 960 L893 955" /> 
<path d="M893 955 L890 951" /> 
<path d="M890 908 L931 908" /> 
<path d="M931 908 L935 906" /> 
<path d="M935 906 L938 903" /> 
<path d="M938 903 L940 899" /> 
<path d="M940 899 L940 889" /> 
<path d="M940 889 L938 884" /> 
<path d="M938 884 L935 882" /> 
<path d="M935 882 L931 880" /> 
<path d="M931 880 L890 880" /> 
<g style = "stroke-linecap:round;" > 
<path d="M890 880 L890 880" /> 
</g><path d="M890 863 L890 835" /> 
<g style = "stroke-linecap:round;" > 
<path d="M890 835 L890 835" /> 
</g><path d="M940 849 L890 849" /> 
<g style = "stroke-linecap:round;" > 
<path d="M890 849 L890 849" /> 
</g><path d="M890 823 L940 790" /> 
<g style = "stroke-linecap:round;" > 
<path d="M940 790 L940 790" /> 
</g><path d="M890 790 L940 823" /> 
<g style = "stroke-linecap:round;" > 
<path d="M940 823 L940 823" /> 
</g></g>
<g style="fill:#A00000; fill-opacity:0.0; 
  stroke:#A00000; stroke-linecap:round; stroke-linejoin:round; stroke-opacity:1.0; stroke-opacity:1.0; stroke-width:6" 
   transform="translate(0 0) scale(1 1)">
<path d="M855 1267 L855 1234" /> 
<path d="M855 1234 L905 1255" /> 
<g style = "stroke-linecap:round;" > 
<path d="M905 1255 L905 1255" /> 
</g><path d="M1170 1100 L1170 1400" /> 
</g>
<g style="fill:#00A0A0; fill-opacity:0.0; 
  stroke:#00A0A0; stroke-linecap:round; stroke-linejoin:round; stroke-opacity:1.0; stroke-opacity:1.0; stroke-width:6" 
   transform="translate(0 0) scale(1 1)">
<path d="M1157 1053 L1190 1041" /> 
<path d="M1190 1041 L1157 1029" /> 
<g style = "stroke-linecap:round;" > 
<path d="M1157 1029 L1157 1029" /> 
</g><path d="M1190 989 L1140 989" /> 
<g style = "stroke-linecap:round;" > 
<path d="M1140 989 L1140 989" /> 
</g><path d="M1188 989 L1190 993" /> 
<path d="M1190 993 L1190 1003" /> 
<path d="M1190 1003 L1188 1008" /> 
<path d="M1188 1008 L1185 1010" /> 
<path d="M1185 1010 L1181 1012" /> 
<path d="M1181 1012 L1166 1012" /> 
<path d="M1166 1012 L1162 1010" /> 
<path d="M1162 1010 L1159 1008" /> 
<path d="M1159 1008 L1157 1003" /> 
<path d="M1157 1003 L1157 993" /> 
<path d="M1157 993 L1159 989" /> 
<g style = "stroke-linecap:round;" > 
<path d="M1159 989 L1159 989" /> 
</g><path d="M1190 944 L1140 944" /> 
<g style = "stroke-linecap:round;" > 
<path d="M1140 944 L1140 944" /> 
</g><path d="M1188 944 L1190 948" /> 
<path d="M1190 948 L1190 958" /> 
<path d="M1190 958 L1188 963" /> 
<path d="M1188 963 L1185 965" /> 
<path d="M1185 965 L1181 967" /> 
<path d="M1181 967 L1166 967" /> 
<path d="M1166 967 L1162 965" /> 
<path d="M1162 965 L1159 963" /> 
<path d="M1159 963 L1157 958" /> 
<path d="M1157 958 L1157 948" /> 
<path d="M1157 948 L1159 944" /> 
<g style = "stroke-linecap:round;" > 
<path d="M1159 944 L1159 944" /> 
</g></g>
<g style="fill:#A00000; fill-opacity:0.0; 
  stroke:#A00000; stroke-linecap:round; stroke-linejoin:round; stroke-opacity:1.0; stroke-opacity:1.0; stroke-width:6" 
   transform="translate(0 0) scale(1 1)">
<path d="M1155 1260 L1155 1250" /> 
<path d="M1155 1250 L1153 1245" /> 
<path d="M1153 1245 L1150 1243" /> 
<path d="M1150 1243 L1143 1238" /> 
<path d="M1143 1238 L1134 1236" /> 
<path d="M1134 1236 L1115 1236" /> 
<path d="M1115 1236 L1110 1238" /> 
<path d="M1110 1238 L1108 1241" /> 
<path d="M1108 1241 L1105 1245" /> 
<path d="M1105 1245 L1105 1255" /> 
<path d="M1105 1255 L1108 1260" /> 
<path d="M1108 1260 L1110 1262" /> 
<path d="M1110 1262 L1115 1264" /> 
<path d="M1115 1264 L1127 1264" /> 
<path d="M1127 1264 L1131 1262" /> 
<path d="M1131 1262 L1134 1260" /> 
<path d="M1134 1260 L1136 1255" /> 
<path d="M1136 1255 L1136 1245" /> 
<path d="M1136 1245 L1134 1241" /> 
<path d="M1134 1241 L1131 1238" /> 
<path d="M1131 1238 L1127 1236" /> 
<g style = "stroke-linecap:round;" > 
<path d="M1127 1236 L1127 1236" /> 
</g><path d="M1270 1100 L1270 1400" /> 
<path d="M1258 1388 L1282 1412" /> 
<path d="M1282 1388 L1258 1412" /> 
</g>
<g style="fill:#00A0A0; fill-opacity:0.0; 
  stroke:#00A0A0; stroke-linecap:round; stroke-linejoin:round; stroke-opacity:1.0; stroke-opacity:1.0; stroke-width:6" 
   transform="translate(0 0) scale(1 1)">
<path d="M1257 1048 L1290 1048" /> 
<g style = "stroke-linecap:round;" > 
<path d="M1290 1048 L1290 1048" /> 
</g><path d="M1262 1048 L1259 1046" /> 
<path d="M1259 1046 L1257 1041" /> 
<path d="M1257 1041 L1257 1034" /> 
<path d="M1257 1034 L1259 1029" /> 
<path d="M1259 1029 L1264 1027" /> 
<path d="M1264 1027 L1290 1027" /> 
<g style = "stroke-linecap:round;" > 
<path d="M1290 1027 L1290 1027" /> 
</g><path d="M1288 982 L1290 986" /> 
<path d="M1290 986 L1290 996" /> 
<path d="M1290 996 L1288 1001" /> 
<path d="M1288 1001 L1285 1003" /> 
<path d="M1285 1003 L1281 1005" /> 
<path d="M1281 1005 L1266 1005" /> 
<path d="M1266 1005 L1262 1003" /> 
<path d="M1262 1003 L1259 1001" /> 
<path d="M1259 1001 L1257 996" /> 
<path d="M1257 996 L1257 986" /> 
<path d="M1257 986 L1259 982" /> 
<g style = "stroke-linecap:round;" > 
<path d="M1259 982 L1259 982" /> 
</g></g>
<g style="fill:#A00000; fill-opacity:0.0; 
  stroke:#A00000; stroke-linecap:round; stroke-linejoin:round; stroke-opacity:1.0; stroke-opacity:1.0; stroke-width:6" 
   transform="translate(0 0) scale(1 1)">
<path d="M1255 1260 L1255 1288" /> 
<g style = "stroke-linecap:round;" > 
<path d="M1255 1288 L1255 1288" /> 
</g><path d="M1255 1274 L1205 1274" /> 
<path d="M1205 1274 L1212 1279" /> 
<path d="M1212 1279 L1217 1284" /> 
<path d="M1217 1284 L1220 1288" /> 
<g style = "stroke-linecap:round;" > 
<path d="M1220 1288 L1220 1288" /> 
</g><path d="M1205 1229 L1205 1224" /> 
<path d="M1205 1224 L1208 1219" /> 
<path d="M1208 1219 L1210 1217" /> 
<path d="M1210 1217 L1215 1214" /> 
<path d="M1215 1214 L1224 1212" /> 
<path d="M1224 1212 L1236 1212" /> 
<path d="M1236 1212 L1246 1214" /> 
<path d="M1246 1214 L1250 1217" /> 
<path d="M1250 1217 L1253 1219" /> 
<path d="M1253 1219 L1255 1224" /> 
<path d="M1255 1224 L1255 1229" /> 
<path d="M1255 1229 L1253 1233" /> 
<path d="M1253 1233 L1250 1236" /> 
<path d="M1250 1236 L1246 1238" /> 
<path d="M1246 1238 L1236 1240" /> 
<path d="M1236 1240 L1224 1240" /> 
<path d="M1224 1240 L1215 1238" /> 
<path d="M1215 1238 L1210 1236" /> 
<path d="M1210 1236 L1208 1233" /> 
<path d="M1208 1233 L1205 1229" /> 
<path d="M1420 1100 L1420 1400" /> 
<path d="M1408 1388 L1432 1412" /> 
<path d="M1432 1388 L1408 1412" /> 
</g>
<g style="fill:#00A0A0; fill-opacity:0.0; 
  stroke:#00A0A0; stroke-linecap:round; stroke-linejoin:round; stroke-opacity:1.0; stroke-opacity:1.0; stroke-width:6" 
   transform="translate(0 0) scale(1 1)">
<path d="M1407 1048 L1440 1048" /> 
<g style = "stroke-linecap:round;" > 
<path d="M1440 1048 L1440 1048" /> 
</g><path d="M1412 1048 L1409 1046" /> 
<path d="M1409 1046 L1407 1041" /> 
<path d="M1407 1041 L1407 1034" /> 
<path d="M1407 1034 L1409 1029" /> 
<path d="M1409 1029 L1414 1027" /> 
<path d="M1414 1027 L1440 1027" /> 
<g style = "stroke-linecap:round;" > 
<path d="M1440 1027 L1440 1027" /> 
</g><path d="M1438 982 L1440 986" /> 
<path d="M1440 986 L1440 996" /> 
<path d="M1440 996 L1438 1001" /> 
<path d="M1438 1001 L1435 1003" /> 
<path d="M1435 1003 L1431 1005" /> 
<path d="M1431 1005 L1416 1005" /> 
<path d="M1416 1005 L1412 1003" /> 
<path d="M1412 1003 L1409 1001" /> 
<path d="M1409 1001 L1407 996" /> 
<path d="M1407 996 L1407 986" /> 
<path d="M1407 986 L1409 982" /> 
<g style = "stroke-linecap:round;" > 
<path d="M1409 982 L1409 982" /> 
</g></g>
<g style="fill:#A00000; fill-opacity:0.0; 
  stroke:#A00000; stroke-linecap:round; stroke-linejoin:round; stroke-opacity:1.0; stroke-opacity:1.0; stroke-width:6" 
   transform="translate(0 0) scale(1 1)">
<path d="M1405 1260 L1405 1288" /> 
<g style = "stroke-linecap:round;" > 
<path d="M1405 1288 L1405 1288" /> 
</g><path d="M1405 1274 L1355 1274" /> 
<path d="M1355 1274 L1362 1279" /> 
<path d="M1362 1279 L1367 1284" /> 
<path d="M1367 1284 L1370 1288" /> 
<g style = "stroke-linecap:round;" > 
<path d="M1370 1288 L1370 1288" /> 
</g><path d="M1405 1212 L1405 1240" /> 
<g style = "stroke-linecap:round;" > 
<path d="M1405 1240 L1405 1240" /> 
</g><path d="M1405 1226 L1355 1226" /> 
<path d="M1355 1226 L1362 1231" /> 
<path d="M1362 1231 L1367 1236" /> 
<path d="M1367 1236 L1370 1240" /> 
<g style = "stroke-linecap:round;" > 
<path d="M1370 1240 L1370 1240" /> 
</g><path d="M2020 700 L2320 700" /> 
</g>
<g style="fill:#00A0A0; fill-opacity:0.0; 
  stroke:#00A0A0; stroke-linecap:round; stroke-linejoin:round; stroke-opacity:1.0; stroke-opacity:1.0; stroke-width:6" 
   transform="translate(0 0) scale(1 1)">
<path d="M1749 687 L1768 687" /> 
<g style = "stroke-linecap:round;" > 
<path d="M1768 687 L1768 687" /> 
</g><path d="M1756 720 L1756 677" /> 
<path d="M1756 677 L1758 673" /> 
<path d="M1758 673 L1763 670" /> 
<path d="M1763 670 L1768 670" /> 
<g style = "stroke-linecap:round;" > 
<path d="M1768 670 L1768 670" /> 
</g><path d="M1785 720 L1785 687" /> 
<g style = "stroke-linecap:round;" > 
<path d="M1785 687 L1785 687" /> 
</g><path d="M1785 670 L1783 673" /> 
<path d="M1783 673 L1785 675" /> 
<path d="M1785 675 L1787 673" /> 
<path d="M1787 673 L1785 670" /> 
<path d="M1785 670 L1785 675" /> 
<g style = "stroke-linecap:round;" > 
<path d="M1785 675 L1785 675" /> 
</g><path d="M1816 720 L1811 718" /> 
<path d="M1811 718 L1809 713" /> 
<path d="M1809 713 L1809 670" /> 
<g style = "stroke-linecap:round;" > 
<path d="M1809 670 L1809 670" /> 
</g><path d="M1828 687 L1847 687" /> 
<g style = "stroke-linecap:round;" > 
<path d="M1847 687 L1847 687" /> 
</g><path d="M1835 670 L1835 713" /> 
<path d="M1835 713 L1837 718" /> 
<path d="M1837 718 L1842 720" /> 
<path d="M1842 720 L1847 720" /> 
<g style = "stroke-linecap:round;" > 
<path d="M1847 720 L1847 720" /> 
</g><path d="M1859 687 L1871 720" /> 
<path d="M1871 720 L1883 687" /> 
<g style = "stroke-linecap:round;" > 
<path d="M1883 687 L1883 687" /> 
</g><path d="M1923 720 L1923 670" /> 
<g style = "stroke-linecap:round;" > 
<path d="M1923 670 L1923 670" /> 
</g><path d="M1923 718 L1919 720" /> 
<path d="M1919 720 L1909 720" /> 
<path d="M1909 720 L1904 718" /> 
<path d="M1904 718 L1902 715" /> 
<path d="M1902 715 L1900 711" /> 
<path d="M1900 711 L1900 696" /> 
<path d="M1900 696 L1902 692" /> 
<path d="M1902 692 L1904 689" /> 
<path d="M1904 689 L1909 687" /> 
<path d="M1909 687 L1919 687" /> 
<path d="M1919 687 L1923 689" /> 
<g style = "stroke-linecap:round;" > 
<path d="M1923 689 L1923 689" /> 
</g><path d="M1968 720 L1968 670" /> 
<g style = "stroke-linecap:round;" > 
<path d="M1968 670 L1968 670" /> 
</g><path d="M1968 718 L1964 720" /> 
<path d="M1964 720 L1954 720" /> 
<path d="M1954 720 L1949 718" /> 
<path d="M1949 718 L1947 715" /> 
<path d="M1947 715 L1945 711" /> 
<path d="M1945 711 L1945 696" /> 
<path d="M1945 696 L1947 692" /> 
<path d="M1947 692 L1949 689" /> 
<path d="M1949 689 L1954 687" /> 
<path d="M1954 687 L1964 687" /> 
<path d="M1964 687 L1968 689" /> 
<g style = "stroke-linecap:round;" > 
<path d="M1968 689 L1968 689" /> 
</g></g>
<g style="fill:#A00000; fill-opacity:0.0; 
  stroke:#A00000; stroke-linecap:round; stroke-linejoin:round; stroke-opacity:1.0; stroke-opacity:1.0; stroke-width:6" 
   transform="translate(0 0) scale(1 1)">
<path d="M2160 685 L2132 685" /> 
<g style = "stroke-linecap:round;" > 
<path d="M2132 685 L2132 685" /> 
</g><path d="M2146 685 L2146 635" /> 
<path d="M2146 635 L2141 642" /> 
<path d="M2141 642 L2136 647" /> 
<path d="M2136 647 L2132 650" /> 
<g style = "stroke-linecap:round;" > 
<path d="M2132 650 L2132 650" /> 
</g><path d="M2189 657 L2184 654" /> 
<path d="M2184 654 L2182 652" /> 
<path d="M2182 652 L2180 647" /> 
<path d="M2180 647 L2180 645" /> 
<path d="M2180 645 L2182 640" /> 
<path d="M2182 640 L2184 638" /> 
<path d="M2184 638 L2189 635" /> 
<path d="M2189 635 L2199 635" /> 
<path d="M2199 635 L2203 638" /> 
<path d="M2203 638 L2206 640" /> 
<path d="M2206 640 L2208 645" /> 
<path d="M2208 645 L2208 647" /> 
<path d="M2208 647 L2206 652" /> 
<path d="M2206 652 L2203 654" /> 
<path d="M2203 654 L2199 657" /> 
<path d="M2199 657 L2189 657" /> 
<path d="M2189 657 L2184 659" /> 
<path d="M2184 659 L2182 661" /> 
<path d="M2182 661 L2180 666" /> 
<path d="M2180 666 L2180 676" /> 
<path d="M2180 676 L2182 680" /> 
<path d="M2182 680 L2184 683" /> 
<path d="M2184 683 L2189 685" /> 
<path d="M2189 685 L2199 685" /> 
<path d="M2199 685 L2203 683" /> 
<path d="M2203 683 L2206 680" /> 
<path d="M2206 680 L2208 676" /> 
<path d="M2208 676 L2208 666" /> 
<path d="M2208 666 L2206 661" /> 
<path d="M2206 661 L2203 659" /> 
<path d="M2203 659 L2199 657" /> 
<g style = "stroke-linecap:round;" > 
<path d="M2199 657 L2199 657" /> 
</g></g> 
</svg> 
